<svg viewBox="0 0 760 1812" class="fig-fit" role="img" aria-labelledby="fig-abmainfields-title"><title id="fig-abmainfields-title">Ability Main tab, every field. One strip per field, each naming the setting, describing it, and demonstrating a low and a high state side by side.</title><metadata><rdf:RDF xmlns:rdf="http://www.w3.org/1999/02/22-rdf-syntax-ns#" xmlns:dc="http://purl.org/dc/elements/1.1/" xmlns:cc="http://creativecommons.org/ns#"><cc:Work rdf:about=""><dc:creator>Bassel Bakr</dc:creator><dc:source>https://github.com/Bassel-Bakr/aim</dc:source><cc:license rdf:resource="https://creativecommons.org/licenses/by-sa/4.0/"/></cc:Work></rdf:RDF></metadata><style>@media (prefers-reduced-motion:reduce){[class*='aim-abmainfields0-']{animation-play-state:paused;animation-delay:-1.20s!important;opacity:1}}@media (prefers-reduced-motion:reduce){[class*='aim-abmainfields1-']{animation-play-state:paused;animation-delay:-1.20s!important;opacity:1}}@media (prefers-reduced-motion:reduce){[class*='aim-abmainfields2-']{animation-play-state:paused;animation-delay:-1.20s!important;opacity:1}}@keyframes aimabmainfields3a0{0%{transform:scaleY(0)}74%{transform:scaleY(0)}80%{transform:scaleY(1)}100%{transform:scaleY(1)}}.aim-abmainfields3-0{animation-name:aimabmainfields3a0;animation-duration:4.0s;animation-iteration-count:infinite}@keyframes aimabmainfields3a1{0%{transform:scaleY(0)}14%{transform:scaleY(0)}20%{transform:scaleY(1)}100%{transform:scaleY(1)}}.aim-abmainfields3-1{animation-name:aimabmainfields3a1;animation-duration:4.0s;animation-iteration-count:infinite}@media (prefers-reduced-motion:reduce){[class*='aim-abmainfields3-']{animation-play-state:paused;animation-delay:-1.20s!important;opacity:1}}@keyframes aimabmainfields4a0{0%{transform:scaleY(0)}94%{transform:scaleY(0)}100%{transform:scaleY(1)}100%{transform:scaleY(1)}}.aim-abmainfields4-0{animation-name:aimabmainfields4a0;animation-duration:4.0s;animation-iteration-count:infinite}@keyframes aimabmainfields4a1{0%{transform:scaleY(0)}14%{transform:scaleY(0)}20%{transform:scaleY(1)}100%{transform:scaleY(1)}}.aim-abmainfields4-1{animation-name:aimabmainfields4a1;animation-duration:4.0s;animation-iteration-count:infinite}@media (prefers-reduced-motion:reduce){[class*='aim-abmainfields4-']{animation-play-state:paused;animation-delay:-1.20s!important;opacity:1}}@media (prefers-reduced-motion:reduce){[class*='aim-abmainfields5-']{animation-play-state:paused;animation-delay:-1.20s!important;opacity:1}}@media (prefers-reduced-motion:reduce){[class*='aim-abmainfields6-']{animation-play-state:paused;animation-delay:-1.20s!important;opacity:1}}@keyframes aimabmainfields7o0{0%{opacity:0.15}12%{opacity:1}100%{opacity:1}}.aim-abmainfields7-0{opacity:0.15;animation-name:aimabmainfields7o0;animation-duration:4.0s;animation-iteration-count:infinite}@keyframes aimabmainfields7o1{0%{opacity:0.15}12%{opacity:1}100%{opacity:1}}.aim-abmainfields7-1{opacity:0.15;animation-name:aimabmainfields7o1;animation-duration:4.0s;animation-iteration-count:infinite}@media (prefers-reduced-motion:reduce){[class*='aim-abmainfields7-']{animation-play-state:paused;animation-delay:-1.20s!important;opacity:1}}@media (prefers-reduced-motion:reduce){[class*='aim-abmainfields8-']{animation-play-state:paused;animation-delay:-1.20s!important;opacity:1}}@media (prefers-reduced-motion:reduce){[class*='aim-abmainfields9-']{animation-play-state:paused;animation-delay:-1.20s!important;opacity:1}}@keyframes aimabmainfields10a0{0%{opacity:0.25}20%{opacity:1}70%{opacity:1}85%{opacity:0.25}100%{opacity:0.25}}.aim-abmainfields10-0{animation-name:aimabmainfields10a0;animation-duration:4.0s;animation-iteration-count:infinite}@keyframes aimabmainfields10a1{0%{opacity:0.25}20%{opacity:1}70%{opacity:1}85%{opacity:0.25}100%{opacity:0.25}}.aim-abmainfields10-1{animation-name:aimabmainfields10a1;animation-duration:4.0s;animation-iteration-count:infinite}@media (prefers-reduced-motion:reduce){[class*='aim-abmainfields10-']{animation-play-state:paused;animation-delay:-1.20s!important;opacity:1}}</style><text x="12" y="26" class="fig-ink" text-anchor="start" font-size="16" font-weight="700">Ability Main tab, every field</text><text x="12" y="44" class="fig-muted" text-anchor="start" font-size="12" font-weight="500">Charges, and what releases them.</text><g transform="translate(0,52)"><text x="12" y="54" class="fig-ink" text-anchor="start" font-size="14" font-weight="700">Profile Name</text><text x="12" y="72" class="fig-muted" text-anchor="start" font-size="11" font-weight="500">What this ability is called.</text><text x="12" y="88" class="fig-muted" text-anchor="start" font-size="11" font-weight="500">Character profiles hold up to</text><text x="12" y="104" class="fig-muted" text-anchor="start" font-size="11" font-weight="500">four by name.</text><rect x="268" y="34" width="232" height="102" rx="8" class="fig-panel"/><text x="384.0" y="152" class="fig-muted" text-anchor="middle" font-size="11" font-weight="600">unnamed</text><rect x="318.0" y="62" width="132" height="28" rx="5" class="fig-panel fig-grid-stroke" stroke-width="1.6"/><text x="384.0" y="110" class="fig-muted" text-anchor="middle" font-size="10" font-weight="500">blank</text><rect x="514" y="34" width="232" height="102" rx="8" class="fig-panel"/><text x="630.0" y="152" class="fig-muted" text-anchor="middle" font-size="11" font-weight="600">named</text><rect x="564.0" y="62" width="132" height="28" rx="5" class="fig-panel fig-grid-stroke" stroke-width="1.6"/><rect x="576.0" y="72" width="22" height="8" rx="3" class="fig-muted" opacity="0.75"/><rect x="606.0" y="72" width="18" height="8" rx="3" class="fig-muted" opacity="0.75"/><rect x="636.0" y="72" width="14" height="8" rx="3" class="fig-muted" opacity="0.75"/><text x="630.0" y="110" class="fig-muted" text-anchor="middle" font-size="10" font-weight="500">carries a name</text></g><g transform="translate(0,212)"><text x="12" y="54" class="fig-ink" text-anchor="start" font-size="14" font-weight="700">Max Charges</text><text x="12" y="72" class="fig-muted" text-anchor="start" font-size="11" font-weight="500">The ceiling on stored uses. It</text><text x="12" y="88" class="fig-muted" text-anchor="start" font-size="11" font-weight="500">decides how many times a run can</text><text x="12" y="104" class="fig-muted" text-anchor="start" font-size="11" font-weight="500">be interrupted by something that</text><text x="12" y="120" class="fig-muted" text-anchor="start" font-size="11" font-weight="500">is not aiming.</text><rect x="268" y="34" width="232" height="102" rx="8" class="fig-panel"/><text x="384.0" y="152" class="fig-muted" text-anchor="middle" font-size="11" font-weight="600">two</text><rect x="362.0" y="63" width="18" height="26" rx="4" class="fig-accent-fill" opacity="1"/><rect x="388.0" y="63" width="18" height="26" rx="4" class="fig-accent-fill" opacity="1"/><text x="384.0" y="116" class="fig-muted" text-anchor="middle" font-size="10" font-weight="600">2 charges at most</text><rect x="514" y="34" width="232" height="102" rx="8" class="fig-panel"/><text x="630.0" y="152" class="fig-muted" text-anchor="middle" font-size="11" font-weight="600">four</text><rect x="582.0" y="63" width="18" height="26" rx="4" class="fig-accent-fill" opacity="1"/><rect x="608.0" y="63" width="18" height="26" rx="4" class="fig-accent-fill" opacity="1"/><rect x="634.0" y="63" width="18" height="26" rx="4" class="fig-accent-fill" opacity="1"/><rect x="660.0" y="63" width="18" height="26" rx="4" class="fig-accent-fill" opacity="1"/><text x="630.0" y="116" class="fig-muted" text-anchor="middle" font-size="10" font-weight="600">4 charges at most</text></g><g transform="translate(0,372)"><text x="12" y="54" class="fig-ink" text-anchor="start" font-size="14" font-weight="700">Charges On Spawn</text><text x="12" y="72" class="fig-muted" text-anchor="start" font-size="11" font-weight="500">How many are ready when the run</text><text x="12" y="88" class="fig-muted" text-anchor="start" font-size="11" font-weight="500">starts, which is not always the</text><text x="12" y="104" class="fig-muted" text-anchor="start" font-size="11" font-weight="500">maximum.</text><rect x="268" y="34" width="232" height="102" rx="8" class="fig-panel"/><text x="384.0" y="152" class="fig-muted" text-anchor="middle" font-size="11" font-weight="600">one ready</text><rect x="336.0" y="63" width="18" height="26" rx="4" class="fig-accent-fill" opacity="1"/><rect x="362.0" y="63" width="18" height="26" rx="4" class="fig-grid-fill" opacity="0.45"/><rect x="388.0" y="63" width="18" height="26" rx="4" class="fig-grid-fill" opacity="0.45"/><rect x="414.0" y="63" width="18" height="26" rx="4" class="fig-grid-fill" opacity="0.45"/><text x="384.0" y="116" class="fig-muted" text-anchor="middle" font-size="10" font-weight="600">1 ready at spawn</text><rect x="514" y="34" width="232" height="102" rx="8" class="fig-panel"/><text x="630.0" y="152" class="fig-muted" text-anchor="middle" font-size="11" font-weight="600">all ready</text><rect x="582.0" y="63" width="18" height="26" rx="4" class="fig-accent-fill" opacity="1"/><rect x="608.0" y="63" width="18" height="26" rx="4" class="fig-accent-fill" opacity="1"/><rect x="634.0" y="63" width="18" height="26" rx="4" class="fig-accent-fill" opacity="1"/><rect x="660.0" y="63" width="18" height="26" rx="4" class="fig-accent-fill" opacity="1"/><text x="630.0" y="116" class="fig-muted" text-anchor="middle" font-size="10" font-weight="600">4 ready at spawn</text></g><g transform="translate(0,532)"><text x="12" y="54" class="fig-ink" text-anchor="start" font-size="14" font-weight="700">Charge Timer</text><text x="12" y="72" class="fig-muted" text-anchor="start" font-size="11" font-weight="500">How long one charge takes to</text><text x="12" y="88" class="fig-muted" text-anchor="start" font-size="11" font-weight="500">come back.</text><rect x="268" y="34" width="232" height="102" rx="8" class="fig-panel"/><text x="384.0" y="152" class="fig-muted" text-anchor="middle" font-size="11" font-weight="600">a long wait</text><rect x="349.0" y="59" width="18" height="26" rx="4" class="fig-accent-fill" opacity="1"/><rect x="375.0" y="59" width="18" height="26" rx="4" class="fig-grid-fill" opacity="0.45"/><rect x="401.0" y="59" width="18" height="26" rx="4" class="fig-grid-fill" opacity="0.45"/><rect x="401.0" y="59" width="18" height="26" rx="4" class="fig-accent-fill aim-abmainfields3-0" style="transform-box:fill-box;transform-origin:bottom center"/><rect x="514" y="34" width="232" height="102" rx="8" class="fig-panel"/><text x="630.0" y="152" class="fig-muted" text-anchor="middle" font-size="11" font-weight="600">it comes back fast</text><rect x="595.0" y="59" width="18" height="26" rx="4" class="fig-accent-fill" opacity="1"/><rect x="621.0" y="59" width="18" height="26" rx="4" class="fig-grid-fill" opacity="0.45"/><rect x="647.0" y="59" width="18" height="26" rx="4" class="fig-grid-fill" opacity="0.45"/><rect x="647.0" y="59" width="18" height="26" rx="4" class="fig-accent-fill aim-abmainfields3-1" style="transform-box:fill-box;transform-origin:bottom center"/></g><g transform="translate(0,692)"><text x="12" y="54" class="fig-ink" text-anchor="start" font-size="14" font-weight="700">Charges Refunded On Kill</text><text x="12" y="72" class="fig-muted" text-anchor="start" font-size="11" font-weight="500">Charges handed back for a kill.</text><text x="12" y="88" class="fig-muted" text-anchor="start" font-size="11" font-weight="500">It ties ability uptime to how</text><text x="12" y="104" class="fig-muted" text-anchor="start" font-size="11" font-weight="500">well the run is going.</text><rect x="268" y="34" width="232" height="102" rx="8" class="fig-panel"/><text x="384.0" y="152" class="fig-muted" text-anchor="middle" font-size="11" font-weight="600">a kill refunds nothing</text><rect x="349.0" y="59" width="18" height="26" rx="4" class="fig-accent-fill" opacity="1"/><rect x="375.0" y="59" width="18" height="26" rx="4" class="fig-grid-fill" opacity="0.45"/><rect x="401.0" y="59" width="18" height="26" rx="4" class="fig-grid-fill" opacity="0.45"/><rect x="401.0" y="59" width="18" height="26" rx="4" class="fig-accent-fill aim-abmainfields4-0" style="transform-box:fill-box;transform-origin:bottom center"/><path d="M320.0 60l16 16M336.0 60l-16 16" class="fig-muted-stroke" stroke-width="2.6" stroke-linecap="round"/><rect x="514" y="34" width="232" height="102" rx="8" class="fig-panel"/><text x="630.0" y="152" class="fig-muted" text-anchor="middle" font-size="11" font-weight="600">the kill refunds one</text><rect x="595.0" y="59" width="18" height="26" rx="4" class="fig-accent-fill" opacity="1"/><rect x="621.0" y="59" width="18" height="26" rx="4" class="fig-grid-fill" opacity="0.45"/><rect x="647.0" y="59" width="18" height="26" rx="4" class="fig-grid-fill" opacity="0.45"/><rect x="647.0" y="59" width="18" height="26" rx="4" class="fig-accent-fill aim-abmainfields4-1" style="transform-box:fill-box;transform-origin:bottom center"/><path d="M566.0 60l16 16M582.0 60l-16 16" class="fig-muted-stroke" stroke-width="2.6" stroke-linecap="round"/></g><g transform="translate(0,852)"><text x="12" y="54" class="fig-ink" text-anchor="start" font-size="14" font-weight="700">Delay Between Uses</text><text x="12" y="72" class="fig-muted" text-anchor="start" font-size="11" font-weight="500">The gap enforced between two</text><text x="12" y="88" class="fig-muted" text-anchor="start" font-size="11" font-weight="500">uses, separate from the charge</text><text x="12" y="104" class="fig-muted" text-anchor="start" font-size="11" font-weight="500">timer.</text><rect x="268" y="34" width="232" height="102" rx="8" class="fig-panel"/><text x="384.0" y="152" class="fig-muted" text-anchor="middle" font-size="11" font-weight="600">back to back</text><rect x="310.0" y="60" width="148" height="20" rx="5" class="fig-grid-fill" opacity="0.4"/><rect x="310.0" y="60" width="21" height="20" rx="5" class="fig-grid-fill" opacity="0.9"/><text x="320.36" y="94" class="fig-muted" text-anchor="middle" font-size="8" font-weight="600">cannot use it</text><path d="M330.7 54V82" class="fig-accent-stroke" stroke-width="2.4"/><rect x="514" y="34" width="232" height="102" rx="8" class="fig-panel"/><text x="630.0" y="152" class="fig-muted" text-anchor="middle" font-size="11" font-weight="600">spaced out</text><rect x="556.0" y="60" width="148" height="20" rx="5" class="fig-grid-fill" opacity="0.4"/><rect x="556.0" y="60" width="101" height="20" rx="5" class="fig-grid-fill" opacity="0.9"/><text x="606.32" y="94" class="fig-muted" text-anchor="middle" font-size="8" font-weight="600">cannot use it</text><path d="M656.6 54V82" class="fig-accent-stroke" stroke-width="2.4"/></g><g transform="translate(0,1012)"><text x="12" y="54" class="fig-ink" text-anchor="start" font-size="14" font-weight="700">Fully Auto</text><text x="12" y="72" class="fig-muted" text-anchor="start" font-size="11" font-weight="500">Whether the ability can be held</text><text x="12" y="88" class="fig-muted" text-anchor="start" font-size="11" font-weight="500">down to keep using it rather</text><text x="12" y="104" class="fig-muted" text-anchor="start" font-size="11" font-weight="500">than pressed per use.</text><rect x="268" y="34" width="232" height="102" rx="8" class="fig-panel"/><text x="384.0" y="152" class="fig-muted" text-anchor="middle" font-size="11" font-weight="600">one press, one use</text><path d="M310.0 80H458.0" class="fig-grid-stroke" stroke-width="1.6" opacity="0.6"/><rect x="310.0" y="71" width="14.8" height="18" rx="4" class="fig-accent-fill"/><rect x="361.8" y="71" width="14.8" height="18" rx="4" class="fig-accent-fill"/><rect x="413.6" y="71" width="14.8" height="18" rx="4" class="fig-accent-fill"/><circle cx="322.0" cy="54" r="4" class="fig-tense-fill"/><circle cx="384.0" cy="54" r="4" class="fig-tense-fill"/><circle cx="446.0" cy="54" r="4" class="fig-tense-fill"/><rect x="514" y="34" width="232" height="102" rx="8" class="fig-panel"/><text x="630.0" y="152" class="fig-muted" text-anchor="middle" font-size="11" font-weight="600">one hold, many uses</text><path d="M556.0 80H704.0" class="fig-grid-stroke" stroke-width="1.6" opacity="0.6"/><rect x="556.0" y="71" width="125.8" height="18" rx="4" class="fig-accent-fill"/><circle cx="568.0" cy="54" r="4" class="fig-tense-fill"/><circle cx="599.0" cy="54" r="4" class="fig-tense-fill"/><circle cx="630.0" cy="54" r="4" class="fig-tense-fill"/><circle cx="661.0" cy="54" r="4" class="fig-tense-fill"/><circle cx="692.0" cy="54" r="4" class="fig-tense-fill"/></g><g transform="translate(0,1172)"><text x="12" y="54" class="fig-ink" text-anchor="start" font-size="14" font-weight="700">Weapon To Shoot</text><text x="12" y="72" class="fig-muted" text-anchor="start" font-size="11" font-weight="500">Which weapon profile the ability</text><text x="12" y="88" class="fig-muted" text-anchor="start" font-size="11" font-weight="500">fires, if it fires one.</text><rect x="268" y="34" width="232" height="102" rx="8" class="fig-panel"/><text x="384.0" y="152" class="fig-muted" text-anchor="middle" font-size="11" font-weight="600">nothing chosen</text><rect x="320.0" y="63" width="26" height="26" rx="6" class="fig-grid-stroke" stroke-width="1.8" fill="none"/><rect x="324.0" y="67" width="18" height="18" rx="4" class="fig-accent-fill aim-abmainfields7-0" style="animation-delay:0.00s"/><rect x="354.0" y="63" width="26" height="26" rx="6" class="fig-grid-stroke" stroke-width="1.8" fill="none"/><rect x="388.0" y="63" width="26" height="26" rx="6" class="fig-grid-stroke" stroke-width="1.8" fill="none"/><rect x="422.0" y="63" width="26" height="26" rx="6" class="fig-grid-stroke" stroke-width="1.8" fill="none"/><rect x="514" y="34" width="232" height="102" rx="8" class="fig-panel"/><text x="630.0" y="152" class="fig-muted" text-anchor="middle" font-size="11" font-weight="600">a weapon</text><rect x="566.0" y="63" width="26" height="26" rx="6" class="fig-grid-stroke" stroke-width="1.8" fill="none"/><rect x="570.0" y="67" width="18" height="18" rx="4" class="fig-accent-fill aim-abmainfields7-1" style="animation-delay:0.00s"/><rect x="600.0" y="63" width="26" height="26" rx="6" class="fig-grid-stroke" stroke-width="1.8" fill="none"/><rect x="604.0" y="67" width="18" height="18" rx="4" class="fig-accent-fill aim-abmainfields7-1" style="animation-delay:0.20s"/><rect x="634.0" y="63" width="26" height="26" rx="6" class="fig-grid-stroke" stroke-width="1.8" fill="none"/><rect x="638.0" y="67" width="18" height="18" rx="4" class="fig-accent-fill aim-abmainfields7-1" style="animation-delay:0.40s"/><rect x="668.0" y="63" width="26" height="26" rx="6" class="fig-grid-stroke" stroke-width="1.8" fill="none"/></g><g transform="translate(0,1332)"><text x="12" y="54" class="fig-ink" text-anchor="start" font-size="14" font-weight="700">Block Attack Timer</text><text x="12" y="72" class="fig-muted" text-anchor="start" font-size="11" font-weight="500">How long after using the ability</text><text x="12" y="88" class="fig-muted" text-anchor="start" font-size="11" font-weight="500">before attacking is allowed</text><text x="12" y="104" class="fig-muted" text-anchor="start" font-size="11" font-weight="500">again.</text><rect x="268" y="34" width="232" height="102" rx="8" class="fig-panel"/><text x="384.0" y="152" class="fig-muted" text-anchor="middle" font-size="11" font-weight="600">a short block</text><path d="M310.0 82H458.0" class="fig-grid-stroke" stroke-width="1.6" opacity="0.6"/><path d="M324.0 60V92" class="fig-tense-stroke" stroke-width="3"/><text x="324.0" y="52" class="fig-muted" text-anchor="middle" font-size="9" font-weight="600">attack</text><rect x="324.0" y="72" width="38" height="20" rx="4" class="fig-grid-fill" opacity="0.75"/><text x="384.0" y="120" class="fig-muted" text-anchor="middle" font-size="10" font-weight="600">a short one</text><rect x="514" y="34" width="232" height="102" rx="8" class="fig-panel"/><text x="630.0" y="152" class="fig-muted" text-anchor="middle" font-size="11" font-weight="600">a long one</text><path d="M556.0 82H704.0" class="fig-grid-stroke" stroke-width="1.6" opacity="0.6"/><path d="M570.0 60V92" class="fig-tense-stroke" stroke-width="3"/><text x="570.0" y="52" class="fig-muted" text-anchor="middle" font-size="9" font-weight="600">attack</text><rect x="570.0" y="72" width="115" height="20" rx="4" class="fig-grid-fill" opacity="0.75"/><text x="630.0" y="120" class="fig-muted" text-anchor="middle" font-size="10" font-weight="600">a long block</text></g><g transform="translate(0,1492)"><text x="12" y="54" class="fig-ink" text-anchor="start" font-size="14" font-weight="700">Blocked When Attacking</text><text x="12" y="72" class="fig-muted" text-anchor="start" font-size="11" font-weight="500">Whether attacking blocks the</text><text x="12" y="88" class="fig-muted" text-anchor="start" font-size="11" font-weight="500">ability, rather than the other</text><text x="12" y="104" class="fig-muted" text-anchor="start" font-size="11" font-weight="500">way round.</text><rect x="268" y="34" width="232" height="102" rx="8" class="fig-panel"/><text x="384.0" y="152" class="fig-muted" text-anchor="middle" font-size="11" font-weight="600">usable either way</text><path d="M310.0 82H458.0" class="fig-grid-stroke" stroke-width="1.6" opacity="0.6"/><path d="M324.0 60V92" class="fig-tense-stroke" stroke-width="3"/><text x="324.0" y="52" class="fig-muted" text-anchor="middle" font-size="9" font-weight="600">attack</text><rect x="324.0" y="72" width="38" height="20" rx="4" class="fig-grid-fill" opacity="0.75"/><rect x="514" y="34" width="232" height="102" rx="8" class="fig-panel"/><text x="630.0" y="152" class="fig-muted" text-anchor="middle" font-size="11" font-weight="600">blocked while attacking</text><path d="M556.0 82H704.0" class="fig-grid-stroke" stroke-width="1.6" opacity="0.6"/><path d="M570.0 60V92" class="fig-tense-stroke" stroke-width="3"/><text x="570.0" y="52" class="fig-muted" text-anchor="middle" font-size="9" font-weight="600">attack</text><rect x="570.0" y="72" width="115" height="20" rx="4" class="fig-grid-fill" opacity="0.75"/></g><g transform="translate(0,1652)"><text x="12" y="54" class="fig-ink" text-anchor="start" font-size="14" font-weight="700">Ammo Per Shot</text><text x="12" y="72" class="fig-muted" text-anchor="start" font-size="11" font-weight="500">Ammo the ability takes from the</text><text x="12" y="88" class="fig-muted" text-anchor="start" font-size="11" font-weight="500">selected weapon each time it</text><text x="12" y="104" class="fig-muted" text-anchor="start" font-size="11" font-weight="500">fires.</text><rect x="268" y="34" width="232" height="102" rx="8" class="fig-panel"/><text x="384.0" y="152" class="fig-muted" text-anchor="middle" font-size="11" font-weight="600">one per use</text><rect x="300.5" y="61" width="14.0" height="22" rx="3" class="fig-grid-stroke" stroke-width="1.4" fill="none" opacity="0.8"/><rect x="302.5" y="64" width="10.0" height="16" rx="2" class="fig-accent-fill"/><rect x="317.5" y="61" width="14.0" height="22" rx="3" class="fig-grid-stroke" stroke-width="1.4" fill="none" opacity="0.8"/><rect x="319.5" y="64" width="10.0" height="16" rx="2" class="fig-accent-fill"/><rect x="334.5" y="61" width="14.0" height="22" rx="3" class="fig-grid-stroke" stroke-width="1.4" fill="none" opacity="0.8"/><rect x="336.5" y="64" width="10.0" height="16" rx="2" class="fig-accent-fill"/><rect x="351.5" y="61" width="14.0" height="22" rx="3" class="fig-grid-stroke" stroke-width="1.4" fill="none" opacity="0.8"/><rect x="353.5" y="64" width="10.0" height="16" rx="2" class="fig-accent-fill"/><rect x="368.5" y="61" width="14.0" height="22" rx="3" class="fig-grid-stroke" stroke-width="1.4" fill="none" opacity="0.8"/><rect x="370.5" y="64" width="10.0" height="16" rx="2" class="fig-accent-fill"/><rect x="385.5" y="61" width="14.0" height="22" rx="3" class="fig-grid-stroke" stroke-width="1.4" fill="none" opacity="0.8"/><rect x="387.5" y="64" width="10.0" height="16" rx="2" class="fig-accent-fill"/><rect x="402.5" y="61" width="14.0" height="22" rx="3" class="fig-grid-stroke" stroke-width="1.4" fill="none" opacity="0.8"/><rect x="404.5" y="64" width="10.0" height="16" rx="2" class="fig-accent-fill"/><rect x="419.5" y="61" width="14.0" height="22" rx="3" class="fig-grid-stroke" stroke-width="1.4" fill="none" opacity="0.8"/><rect x="421.5" y="64" width="10.0" height="16" rx="2" class="fig-accent-fill"/><rect x="436.5" y="61" width="14.0" height="22" rx="3" class="fig-grid-stroke" stroke-width="1.4" fill="none" opacity="0.8"/><rect x="438.5" y="64" width="10.0" height="16" rx="2" class="fig-accent-fill"/><rect x="453.5" y="61" width="14.0" height="22" rx="3" class="fig-grid-stroke" stroke-width="1.4" fill="none" opacity="0.8"/><rect x="455.5" y="64" width="10.0" height="16" rx="2" class="fig-accent-fill"/><rect x="452.0" y="61" width="14.0" height="30" rx="4" class="fig-tense-stroke aim-abmainfields10-0" stroke-width="2.4" fill="none"/><text x="384.0" y="110" class="fig-muted" text-anchor="middle" font-size="10" font-weight="600">one per press</text><rect x="514" y="34" width="232" height="102" rx="8" class="fig-panel"/><text x="630.0" y="152" class="fig-muted" text-anchor="middle" font-size="11" font-weight="600">several</text><rect x="546.5" y="61" width="14.0" height="22" rx="3" class="fig-grid-stroke" stroke-width="1.4" fill="none" opacity="0.8"/><rect x="548.5" y="64" width="10.0" height="16" rx="2" class="fig-accent-fill"/><rect x="563.5" y="61" width="14.0" height="22" rx="3" class="fig-grid-stroke" stroke-width="1.4" fill="none" opacity="0.8"/><rect x="565.5" y="64" width="10.0" height="16" rx="2" class="fig-accent-fill"/><rect x="580.5" y="61" width="14.0" height="22" rx="3" class="fig-grid-stroke" stroke-width="1.4" fill="none" opacity="0.8"/><rect x="582.5" y="64" width="10.0" height="16" rx="2" class="fig-accent-fill"/><rect x="597.5" y="61" width="14.0" height="22" rx="3" class="fig-grid-stroke" stroke-width="1.4" fill="none" opacity="0.8"/><rect x="599.5" y="64" width="10.0" height="16" rx="2" class="fig-accent-fill"/><rect x="614.5" y="61" width="14.0" height="22" rx="3" class="fig-grid-stroke" stroke-width="1.4" fill="none" opacity="0.8"/><rect x="616.5" y="64" width="10.0" height="16" rx="2" class="fig-accent-fill"/><rect x="631.5" y="61" width="14.0" height="22" rx="3" class="fig-grid-stroke" stroke-width="1.4" fill="none" opacity="0.8"/><rect x="633.5" y="64" width="10.0" height="16" rx="2" class="fig-accent-fill"/><rect x="648.5" y="61" width="14.0" height="22" rx="3" class="fig-grid-stroke" stroke-width="1.4" fill="none" opacity="0.8"/><rect x="650.5" y="64" width="10.0" height="16" rx="2" class="fig-accent-fill"/><rect x="665.5" y="61" width="14.0" height="22" rx="3" class="fig-grid-stroke" stroke-width="1.4" fill="none" opacity="0.8"/><rect x="667.5" y="64" width="10.0" height="16" rx="2" class="fig-accent-fill"/><rect x="682.5" y="61" width="14.0" height="22" rx="3" class="fig-grid-stroke" stroke-width="1.4" fill="none" opacity="0.8"/><rect x="684.5" y="64" width="10.0" height="16" rx="2" class="fig-accent-fill"/><rect x="699.5" y="61" width="14.0" height="22" rx="3" class="fig-grid-stroke" stroke-width="1.4" fill="none" opacity="0.8"/><rect x="701.5" y="64" width="10.0" height="16" rx="2" class="fig-accent-fill"/><rect x="647.0" y="61" width="65.0" height="30" rx="4" class="fig-tense-stroke aim-abmainfields10-1" stroke-width="2.4" fill="none"/><text x="630.0" y="110" class="fig-muted" text-anchor="middle" font-size="10" font-weight="600">4 per press</text></g></svg>
