<svg viewBox="0 0 760 692" class="fig-fit" role="img" aria-labelledby="fig-colorfields-title"><title id="fig-colorfields-title">Colors tab, every field. One strip per field, each naming the setting, describing it, and demonstrating a low and a high state side by side.</title><metadata><rdf:RDF xmlns:rdf="http://www.w3.org/1999/02/22-rdf-syntax-ns#" xmlns:dc="http://purl.org/dc/elements/1.1/" xmlns:cc="http://creativecommons.org/ns#"><cc:Work rdf:about=""><dc:creator>Bassel Bakr</dc:creator><dc:source>https://github.com/Bassel-Bakr/aim</dc:source><cc:license rdf:resource="https://creativecommons.org/licenses/by-sa/4.0/"/></cc:Work></rdf:RDF></metadata><style>@media (prefers-reduced-motion:reduce){[class*='aim-colorfields0-']{animation-play-state:paused;animation-delay:-1.20s!important;opacity:1}}@media (prefers-reduced-motion:reduce){[class*='aim-colorfields1-']{animation-play-state:paused;animation-delay:-1.20s!important;opacity:1}}@media (prefers-reduced-motion:reduce){[class*='aim-colorfields2-']{animation-play-state:paused;animation-delay:-1.20s!important;opacity:1}}@media (prefers-reduced-motion:reduce){[class*='aim-colorfields3-']{animation-play-state:paused;animation-delay:-1.20s!important;opacity:1}}</style><text x="12" y="26" class="fig-ink" text-anchor="start" font-size="16" font-weight="700">Colors tab, every field</text><text x="12" y="44" class="fig-muted" text-anchor="start" font-size="12" font-weight="500">Four colors, every one of which a reader may override.</text><g transform="translate(0,52)"><text x="12" y="54" class="fig-ink" text-anchor="start" font-size="14" font-weight="700">Enemy Head Color</text><text x="12" y="72" class="fig-muted" text-anchor="start" font-size="11" font-weight="500">Head color for enemies. The</text><text x="12" y="88" class="fig-muted" text-anchor="start" font-size="11" font-weight="500">convention is head for the</text><text x="12" y="104" class="fig-muted" text-anchor="start" font-size="11" font-weight="500">character and body for the team.</text><rect x="268" y="34" width="232" height="102" rx="8" class="fig-panel"/><text x="384.0" y="152" class="fig-muted" text-anchor="middle" font-size="11" font-weight="600">default</text><rect x="371.0" y="70" width="26" height="40" rx="6" class="fig-target"/><circle cx="420.0" cy="58" r="8" class="fig-ink-stroke" stroke-width="2.2" fill="none"/><path d="M407.0 58H416.0M424.0 58H433.0M420.0 45V54M420.0 62V71" class="fig-ink-stroke" stroke-width="2.2"/><rect x="514" y="34" width="232" height="102" rx="8" class="fig-panel"/><text x="630.0" y="152" class="fig-muted" text-anchor="middle" font-size="11" font-weight="600">set</text><rect x="617.0" y="70" width="26" height="40" rx="6" class="fig-target"/><circle cx="630.0" cy="58" r="11" class="fig-target"/><circle cx="630.0" cy="58" r="17" class="fig-accent-stroke" stroke-width="2" stroke-dasharray="4 3" fill="none"/><circle cx="666.0" cy="58" r="8" class="fig-ink-stroke" stroke-width="2.2" fill="none"/><path d="M653.0 58H662.0M670.0 58H679.0M666.0 45V54M666.0 62V71" class="fig-ink-stroke" stroke-width="2.2"/></g><g transform="translate(0,212)"><text x="12" y="54" class="fig-ink" text-anchor="start" font-size="14" font-weight="700">Enemy Body Color</text><text x="12" y="72" class="fig-muted" text-anchor="start" font-size="11" font-weight="500">Body color for enemies.</text><rect x="268" y="34" width="232" height="102" rx="8" class="fig-panel"/><text x="384.0" y="152" class="fig-muted" text-anchor="middle" font-size="11" font-weight="600">default</text><rect x="371.0" y="70" width="26" height="38" rx="6" class="fig-grid-fill"/><circle cx="384.0" cy="58" r="11" class="fig-grid-fill"/><text x="354.0" y="58" class="fig-muted" text-anchor="end" font-size="10" font-weight="500">head</text><text x="354.0" y="90" class="fig-muted" text-anchor="end" font-size="10" font-weight="500">body</text><text x="384.0" y="126" class="fig-muted" text-anchor="middle" font-size="9" font-weight="500">reader may override</text><rect x="514" y="34" width="232" height="102" rx="8" class="fig-panel"/><text x="630.0" y="152" class="fig-muted" text-anchor="middle" font-size="11" font-weight="600">set</text><rect x="617.0" y="70" width="26" height="38" rx="6" class="fig-cool-fill"/><circle cx="630.0" cy="58" r="11" class="fig-accent-fill"/><text x="600.0" y="58" class="fig-muted" text-anchor="end" font-size="10" font-weight="500">head</text><text x="600.0" y="90" class="fig-muted" text-anchor="end" font-size="10" font-weight="500">body</text><text x="630.0" y="126" class="fig-muted" text-anchor="middle" font-size="9" font-weight="500">reader may override</text></g><g transform="translate(0,372)"><text x="12" y="54" class="fig-ink" text-anchor="start" font-size="14" font-weight="700">Team Head Color</text><text x="12" y="72" class="fig-muted" text-anchor="start" font-size="11" font-weight="500">Head color for teammates.</text><rect x="268" y="34" width="232" height="102" rx="8" class="fig-panel"/><text x="384.0" y="152" class="fig-muted" text-anchor="middle" font-size="11" font-weight="600">default</text><rect x="371.0" y="70" width="26" height="38" rx="6" class="fig-grid-fill"/><circle cx="384.0" cy="58" r="11" class="fig-grid-fill"/><text x="354.0" y="58" class="fig-muted" text-anchor="end" font-size="10" font-weight="500">head</text><text x="354.0" y="90" class="fig-muted" text-anchor="end" font-size="10" font-weight="500">body</text><text x="384.0" y="126" class="fig-muted" text-anchor="middle" font-size="9" font-weight="500">reader may override</text><rect x="514" y="34" width="232" height="102" rx="8" class="fig-panel"/><text x="630.0" y="152" class="fig-muted" text-anchor="middle" font-size="11" font-weight="600">set</text><rect x="617.0" y="70" width="26" height="38" rx="6" class="fig-cool-fill"/><circle cx="630.0" cy="58" r="11" class="fig-accent-fill"/><text x="600.0" y="58" class="fig-muted" text-anchor="end" font-size="10" font-weight="500">head</text><text x="600.0" y="90" class="fig-muted" text-anchor="end" font-size="10" font-weight="500">body</text><text x="630.0" y="126" class="fig-muted" text-anchor="middle" font-size="9" font-weight="500">reader may override</text></g><g transform="translate(0,532)"><text x="12" y="54" class="fig-ink" text-anchor="start" font-size="14" font-weight="700">Team Body Color</text><text x="12" y="72" class="fig-muted" text-anchor="start" font-size="11" font-weight="500">Body color for teammates.</text><text x="12" y="88" class="fig-muted" text-anchor="start" font-size="11" font-weight="500">Readers can override all four in</text><text x="12" y="104" class="fig-muted" text-anchor="start" font-size="11" font-weight="500">their own Visuals settings.</text><rect x="268" y="34" width="232" height="102" rx="8" class="fig-panel"/><text x="384.0" y="152" class="fig-muted" text-anchor="middle" font-size="11" font-weight="600">default</text><rect x="371.0" y="70" width="26" height="38" rx="6" class="fig-grid-fill"/><circle cx="384.0" cy="58" r="11" class="fig-grid-fill"/><text x="354.0" y="58" class="fig-muted" text-anchor="end" font-size="10" font-weight="500">head</text><text x="354.0" y="90" class="fig-muted" text-anchor="end" font-size="10" font-weight="500">body</text><text x="384.0" y="126" class="fig-muted" text-anchor="middle" font-size="9" font-weight="500">reader may override</text><rect x="514" y="34" width="232" height="102" rx="8" class="fig-panel"/><text x="630.0" y="152" class="fig-muted" text-anchor="middle" font-size="11" font-weight="600">set</text><rect x="617.0" y="70" width="26" height="38" rx="6" class="fig-cool-fill"/><circle cx="630.0" cy="58" r="11" class="fig-accent-fill"/><text x="600.0" y="58" class="fig-muted" text-anchor="end" font-size="10" font-weight="500">head</text><text x="600.0" y="90" class="fig-muted" text-anchor="end" font-size="10" font-weight="500">body</text><text x="630.0" y="126" class="fig-muted" text-anchor="middle" font-size="9" font-weight="500">reader may override</text></g></svg>
