<svg viewBox="0 0 760 320" class="fig-fit" role="img" aria-labelledby="fig-spawnfov-title"><title id="fig-spawnfov-title">Two panels with a player looking down a marked cone and seven spawn points around them. With the distance set, the spawns inside the cone fade out as blocked. With the distance left at zero every spawn stays available, because the field of view is never checked.</title><metadata><rdf:RDF xmlns:rdf="http://www.w3.org/1999/02/22-rdf-syntax-ns#" xmlns:dc="http://purl.org/dc/elements/1.1/" xmlns:cc="http://creativecommons.org/ns#"><cc:Work rdf:about=""><dc:creator>Bassel Bakr</dc:creator><dc:source>https://github.com/Bassel-Bakr/aim</dc:source><cc:license rdf:resource="https://creativecommons.org/licenses/by-sa/4.0/"/></cc:Work></rdf:RDF></metadata><style>@keyframes aimSfvPop{0%{opacity:0}6%{opacity:1}100%{opacity:1}}.aim-sfv-pop{opacity:0;animation-name:aimSfvPop;animation-iteration-count:infinite;animation-duration:5.6s}@keyframes aimSfvBlock{0%{opacity:0}40%{opacity:0}48%{opacity:0.25}100%{opacity:0.25}}.aim-sfv-block{opacity:0;animation-name:aimSfvBlock;animation-iteration-count:infinite;animation-duration:5.6s}@media (prefers-reduced-motion:reduce){.aim-sfv-pop{opacity:1;animation:none!important}.aim-sfv-block{opacity:0.25;animation:none!important}}</style><rect x="12" y="46" width="356" height="234" rx="12" class="fig-panel"/><text x="32" y="30"><tspan font-size="16" font-weight="700" class="fig-ink fig-name">Distance set</tspan><tspan dx="10" font-size="13" font-weight="500" class="fig-muted fig-note">recommended 15 to 30 degrees</tspan></text><text x="190" y="302" class="fig-muted" text-anchor="middle" font-size="12" font-weight="500">spawns in your view are blocked</text><path d="M190 250L112 84L268 84Z" class="fig-cool-stroke" stroke-width="2" stroke-dasharray="6 5" fill="none" opacity="0.8"/><circle cx="190" cy="242" r="8" class="fig-ink-stroke" stroke-width="2.2" fill="none"/><path d="M177 242H186M194 242H203M190 229V238M190 246V255" class="fig-ink-stroke" stroke-width="2.2"/><text x="190" y="272" class="fig-muted" text-anchor="middle" font-size="12" font-weight="500">you</text><circle cx="72" cy="122" r="13" class="fig-target aim-sfv-pop" style="animation-delay:0.00s"/><circle cx="152" cy="94" r="13" class="fig-target aim-sfv-pop aim-sfv-block" style="animation-delay:0.18s"/><circle cx="236" cy="110" r="13" class="fig-target aim-sfv-pop aim-sfv-block" style="animation-delay:0.36s"/><circle cx="316" cy="138" r="13" class="fig-target aim-sfv-pop" style="animation-delay:0.54s"/><circle cx="98" cy="190" r="13" class="fig-target aim-sfv-pop" style="animation-delay:0.72s"/><circle cx="214" cy="202" r="13" class="fig-target aim-sfv-pop" style="animation-delay:0.90s"/><circle cx="308" cy="186" r="13" class="fig-target aim-sfv-pop" style="animation-delay:1.08s"/><rect x="392" y="46" width="356" height="234" rx="12" class="fig-panel"/><text x="412" y="30"><tspan font-size="16" font-weight="700" class="fig-ink fig-name">Distance left at 0</tspan></text><text x="570" y="302" class="fig-muted" text-anchor="middle" font-size="12" font-weight="500">the FOV is never checked</text><path d="M570 250L492 84L648 84Z" class="fig-cool-stroke" stroke-width="2" stroke-dasharray="6 5" fill="none" opacity="0.8"/><circle cx="570" cy="242" r="8" class="fig-ink-stroke" stroke-width="2.2" fill="none"/><path d="M557 242H566M574 242H583M570 229V238M570 246V255" class="fig-ink-stroke" stroke-width="2.2"/><text x="570" y="272" class="fig-muted" text-anchor="middle" font-size="12" font-weight="500">you</text><circle cx="452" cy="122" r="13" class="fig-target aim-sfv-pop" style="animation-delay:0.00s"/><circle cx="532" cy="94" r="13" class="fig-target aim-sfv-pop" style="animation-delay:0.18s"/><circle cx="616" cy="110" r="13" class="fig-target aim-sfv-pop" style="animation-delay:0.36s"/><circle cx="696" cy="138" r="13" class="fig-target aim-sfv-pop" style="animation-delay:0.54s"/><circle cx="478" cy="190" r="13" class="fig-target aim-sfv-pop" style="animation-delay:0.72s"/><circle cx="594" cy="202" r="13" class="fig-target aim-sfv-pop" style="animation-delay:0.90s"/><circle cx="688" cy="186" r="13" class="fig-target aim-sfv-pop" style="animation-delay:1.08s"/></svg>
