<svg viewBox="0 0 760 1332" class="fig-fit" role="img" aria-labelledby="fig-wspreadfields-title"><title id="fig-wspreadfields-title">Spread tab, every field. One strip per field, each naming the setting, describing it, and demonstrating a low and a high state side by side.</title><metadata><rdf:RDF xmlns:rdf="http://www.w3.org/1999/02/22-rdf-syntax-ns#" xmlns:dc="http://purl.org/dc/elements/1.1/" xmlns:cc="http://creativecommons.org/ns#"><cc:Work rdf:about=""><dc:creator>Bassel Bakr</dc:creator><dc:source>https://github.com/Bassel-Bakr/aim</dc:source><cc:license rdf:resource="https://creativecommons.org/licenses/by-sa/4.0/"/></cc:Work></rdf:RDF></metadata><style>@keyframes aimwspreadfields0n0{0%{opacity:0}5%{opacity:1}44%{opacity:1}50%{opacity:0}100%{opacity:0}}.aim-wspreadfields0-0{opacity:0;animation-name:aimwspreadfields0n0;animation-duration:4.0s;animation-iteration-count:infinite}@keyframes aimwspreadfields0n1{0%{opacity:0}5%{opacity:1}44%{opacity:1}50%{opacity:0}100%{opacity:0}}.aim-wspreadfields0-1{opacity:0;animation-name:aimwspreadfields0n1;animation-duration:4.0s;animation-iteration-count:infinite}@media (prefers-reduced-motion:reduce){[class*='aim-wspreadfields0-']{animation-play-state:paused;animation-delay:-1.20s!important;opacity:1}}@keyframes aimwspreadfields1s0{0%{opacity:0}6%{opacity:1}72%{opacity:1}80%{opacity:0}100%{opacity:0}}.aim-wspreadfields1-0{opacity:0;animation-name:aimwspreadfields1s0;animation-duration:4.0s;animation-iteration-count:infinite}@keyframes aimwspreadfields1s1{0%{opacity:0}6%{opacity:1}72%{opacity:1}80%{opacity:0}100%{opacity:0}}.aim-wspreadfields1-1{opacity:0;animation-name:aimwspreadfields1s1;animation-duration:4.0s;animation-iteration-count:infinite}@media (prefers-reduced-motion:reduce){[class*='aim-wspreadfields1-']{animation-play-state:paused;animation-delay:-1.20s!important;opacity:1}}@media (prefers-reduced-motion:reduce){[class*='aim-wspreadfields2-']{animation-play-state:paused;animation-delay:-1.20s!important;opacity:1}}@media (prefers-reduced-motion:reduce){[class*='aim-wspreadfields3-']{animation-play-state:paused;animation-delay:-1.20s!important;opacity:1}}@keyframes aimwspreadfields4s0{0%{opacity:0}6%{opacity:1}72%{opacity:1}80%{opacity:0}100%{opacity:0}}.aim-wspreadfields4-0{opacity:0;animation-name:aimwspreadfields4s0;animation-duration:4.0s;animation-iteration-count:infinite}@keyframes aimwspreadfields4s1{0%{opacity:0}6%{opacity:1}72%{opacity:1}80%{opacity:0}100%{opacity:0}}.aim-wspreadfields4-1{opacity:0;animation-name:aimwspreadfields4s1;animation-duration:4.0s;animation-iteration-count:infinite}@media (prefers-reduced-motion:reduce){[class*='aim-wspreadfields4-']{animation-play-state:paused;animation-delay:-1.20s!important;opacity:1}}@keyframes aimwspreadfields5s0{0%{opacity:0}6%{opacity:1}72%{opacity:1}80%{opacity:0}100%{opacity:0}}.aim-wspreadfields5-0{opacity:0;animation-name:aimwspreadfields5s0;animation-duration:4.0s;animation-iteration-count:infinite}@keyframes aimwspreadfields5s1{0%{opacity:0}6%{opacity:1}72%{opacity:1}80%{opacity:0}100%{opacity:0}}.aim-wspreadfields5-1{opacity:0;animation-name:aimwspreadfields5s1;animation-duration:4.0s;animation-iteration-count:infinite}@media (prefers-reduced-motion:reduce){[class*='aim-wspreadfields5-']{animation-play-state:paused;animation-delay:-1.20s!important;opacity:1}}@keyframes aimwspreadfields6s0{0%{opacity:0}6%{opacity:1}72%{opacity:1}80%{opacity:0}100%{opacity:0}}.aim-wspreadfields6-0{opacity:0;animation-name:aimwspreadfields6s0;animation-duration:4.0s;animation-iteration-count:infinite}@keyframes aimwspreadfields6s1{0%{opacity:0}6%{opacity:1}72%{opacity:1}80%{opacity:0}100%{opacity:0}}.aim-wspreadfields6-1{opacity:0;animation-name:aimwspreadfields6s1;animation-duration:4.0s;animation-iteration-count:infinite}@media (prefers-reduced-motion:reduce){[class*='aim-wspreadfields6-']{animation-play-state:paused;animation-delay:-1.20s!important;opacity:1}}@keyframes aimwspreadfields7s0{0%{opacity:0}6%{opacity:1}72%{opacity:1}80%{opacity:0}100%{opacity:0}}.aim-wspreadfields7-0{opacity:0;animation-name:aimwspreadfields7s0;animation-duration:4.0s;animation-iteration-count:infinite}@keyframes aimwspreadfields7s1{0%{opacity:0}6%{opacity:1}72%{opacity:1}80%{opacity:0}100%{opacity:0}}.aim-wspreadfields7-1{opacity:0;animation-name:aimwspreadfields7s1;animation-duration:4.0s;animation-iteration-count:infinite}@media (prefers-reduced-motion:reduce){[class*='aim-wspreadfields7-']{animation-play-state:paused;animation-delay:-1.20s!important;opacity:1}}</style><text x="12" y="26" class="fig-ink" text-anchor="start" font-size="16" font-weight="700">Spread tab, every field</text><text x="12" y="44" class="fig-muted" text-anchor="start" font-size="12" font-weight="500">The random cone, and how fast it opens and closes.</text><g transform="translate(0,52)"><text x="12" y="54" class="fig-ink" text-anchor="start" font-size="14" font-weight="700">Firing Type</text><text x="12" y="72" class="fig-muted" text-anchor="start" font-size="11" font-weight="500">Which firing state this block of</text><text x="12" y="88" class="fig-muted" text-anchor="start" font-size="11" font-weight="500">spread settings applies to, such</text><text x="12" y="104" class="fig-muted" text-anchor="start" font-size="11" font-weight="500">as standing hipfire.</text><rect x="268" y="34" width="232" height="102" rx="8" class="fig-panel"/><text x="384.0" y="152" class="fig-muted" text-anchor="middle" font-size="11" font-weight="600">one state</text><circle cx="368.3" cy="78.7" r="4" class="fig-target aim-wspreadfields0-0" style="animation-delay:0.00s"/><circle cx="376.2" cy="82.2" r="4" class="fig-target aim-wspreadfields0-0" style="animation-delay:0.00s"/><circle cx="391.5" cy="49.9" r="4" class="fig-target aim-wspreadfields0-0" style="animation-delay:0.00s"/><circle cx="354.8" cy="96.2" r="4" class="fig-target aim-wspreadfields0-0" style="animation-delay:0.00s"/><circle cx="369.6" cy="60.1" r="4" class="fig-target aim-wspreadfields0-0" style="animation-delay:0.00s"/><circle cx="413.7" cy="74.2" r="4" class="fig-target aim-wspreadfields0-0" style="animation-delay:0.00s"/><circle cx="404.2" cy="74.6" r="4" class="fig-target aim-wspreadfields0-0" style="animation-delay:2.00s"/><circle cx="392.3" cy="55.0" r="4" class="fig-target aim-wspreadfields0-0" style="animation-delay:2.00s"/><circle cx="392.1" cy="98.1" r="4" class="fig-target aim-wspreadfields0-0" style="animation-delay:2.00s"/><circle cx="385.4" cy="90.5" r="4" class="fig-target aim-wspreadfields0-0" style="animation-delay:2.00s"/><circle cx="394.3" cy="49.8" r="4" class="fig-target aim-wspreadfields0-0" style="animation-delay:2.00s"/><circle cx="399.5" cy="81.5" r="4" class="fig-target aim-wspreadfields0-0" style="animation-delay:2.00s"/><circle cx="384.0" cy="76" r="8" class="fig-ink-stroke" stroke-width="2.2" fill="none"/><path d="M371.0 76H380.0M388.0 76H397.0M384.0 63V72M384.0 80V89" class="fig-ink-stroke" stroke-width="2.2"/><rect x="514" y="34" width="232" height="102" rx="8" class="fig-panel"/><text x="630.0" y="152" class="fig-muted" text-anchor="middle" font-size="11" font-weight="600">another</text><circle cx="614.3" cy="78.7" r="4" class="fig-target aim-wspreadfields0-1" style="animation-delay:0.00s"/><circle cx="622.2" cy="82.2" r="4" class="fig-target aim-wspreadfields0-1" style="animation-delay:0.00s"/><circle cx="637.5" cy="49.9" r="4" class="fig-target aim-wspreadfields0-1" style="animation-delay:0.00s"/><circle cx="600.8" cy="96.2" r="4" class="fig-target aim-wspreadfields0-1" style="animation-delay:0.00s"/><circle cx="615.6" cy="60.1" r="4" class="fig-target aim-wspreadfields0-1" style="animation-delay:0.00s"/><circle cx="659.7" cy="74.2" r="4" class="fig-target aim-wspreadfields0-1" style="animation-delay:0.00s"/><circle cx="614.3" cy="78.7" r="4" class="fig-target aim-wspreadfields0-1" style="animation-delay:2.00s"/><circle cx="622.2" cy="82.2" r="4" class="fig-target aim-wspreadfields0-1" style="animation-delay:2.00s"/><circle cx="637.5" cy="49.9" r="4" class="fig-target aim-wspreadfields0-1" style="animation-delay:2.00s"/><circle cx="600.8" cy="96.2" r="4" class="fig-target aim-wspreadfields0-1" style="animation-delay:2.00s"/><circle cx="615.6" cy="60.1" r="4" class="fig-target aim-wspreadfields0-1" style="animation-delay:2.00s"/><circle cx="659.7" cy="74.2" r="4" class="fig-target aim-wspreadfields0-1" style="animation-delay:2.00s"/><circle cx="630.0" cy="76" r="8" class="fig-ink-stroke" stroke-width="2.2" fill="none"/><path d="M617.0 76H626.0M634.0 76H643.0M630.0 63V72M630.0 80V89" class="fig-ink-stroke" stroke-width="2.2"/></g><g transform="translate(0,212)"><text x="12" y="54" class="fig-ink" text-anchor="start" font-size="14" font-weight="700">Circular Spread</text><text x="12" y="72" class="fig-muted" text-anchor="start" font-size="11" font-weight="500">Unchecked, the spread is square</text><text x="12" y="88" class="fig-muted" text-anchor="start" font-size="11" font-weight="500">instead. A square reaches</text><text x="12" y="104" class="fig-muted" text-anchor="start" font-size="11" font-weight="500">further at its corners than</text><text x="12" y="120" class="fig-muted" text-anchor="start" font-size="11" font-weight="500">along its edges.</text><rect x="268" y="34" width="232" height="102" rx="8" class="fig-panel"/><text x="384.0" y="152" class="fig-muted" text-anchor="middle" font-size="11" font-weight="600">square</text><circle cx="384.0" cy="76" r="12" class="fig-grid-stroke" stroke-width="1.6" stroke-dasharray="4 4" fill="none"/><circle cx="388.0" cy="76.3" r="4" class="fig-target aim-wspreadfields1-0" style="animation-delay:0.00s"/><circle cx="376.2" cy="82.2" r="4" class="fig-target aim-wspreadfields1-0" style="animation-delay:0.09s"/><circle cx="386.6" cy="79.1" r="4" class="fig-target aim-wspreadfields1-0" style="animation-delay:0.18s"/><circle cx="385.2" cy="86.4" r="4" class="fig-target aim-wspreadfields1-0" style="animation-delay:0.27s"/><circle cx="390.2" cy="84.3" r="4" class="fig-target aim-wspreadfields1-0" style="animation-delay:0.36s"/><circle cx="381.7" cy="72.2" r="4" class="fig-target aim-wspreadfields1-0" style="animation-delay:0.45s"/><circle cx="376.2" cy="74.2" r="4" class="fig-target aim-wspreadfields1-0" style="animation-delay:0.54s"/><circle cx="384.0" cy="76" r="8" class="fig-ink-stroke" stroke-width="2.2" fill="none"/><path d="M371.0 76H380.0M388.0 76H397.0M384.0 63V72M384.0 80V89" class="fig-ink-stroke" stroke-width="2.2"/><rect x="514" y="34" width="232" height="102" rx="8" class="fig-panel"/><text x="630.0" y="152" class="fig-muted" text-anchor="middle" font-size="11" font-weight="600">circular</text><circle cx="630.0" cy="76" r="34" class="fig-grid-stroke" stroke-width="1.6" stroke-dasharray="4 4" fill="none"/><circle cx="643.9" cy="83.3" r="4" class="fig-target aim-wspreadfields1-1" style="animation-delay:0.00s"/><circle cx="619.4" cy="106.5" r="4" class="fig-target aim-wspreadfields1-1" style="animation-delay:0.09s"/><circle cx="601.2" cy="76.7" r="4" class="fig-target aim-wspreadfields1-1" style="animation-delay:0.18s"/><circle cx="649.6" cy="90.3" r="4" class="fig-target aim-wspreadfields1-1" style="animation-delay:0.27s"/><circle cx="643.6" cy="55.5" r="4" class="fig-target aim-wspreadfields1-1" style="animation-delay:0.36s"/><circle cx="660.0" cy="65.1" r="4" class="fig-target aim-wspreadfields1-1" style="animation-delay:0.45s"/><circle cx="629.4" cy="76.7" r="4" class="fig-target aim-wspreadfields1-1" style="animation-delay:0.54s"/><circle cx="630.0" cy="76" r="8" class="fig-ink-stroke" stroke-width="2.2" fill="none"/><path d="M617.0 76H626.0M634.0 76H643.0M630.0 63V72M630.0 80V89" class="fig-ink-stroke" stroke-width="2.2"/></g><g transform="translate(0,372)"><text x="12" y="54" class="fig-ink" text-anchor="start" font-size="14" font-weight="700">Stationary Velocity</text><text x="12" y="72" class="fig-muted" text-anchor="start" font-size="11" font-weight="500">The speed below which you count</text><text x="12" y="88" class="fig-muted" text-anchor="start" font-size="11" font-weight="500">as standing still for spread.</text><rect x="268" y="34" width="232" height="102" rx="8" class="fig-panel"/><text x="384.0" y="152" class="fig-muted" text-anchor="middle" font-size="11" font-weight="600">moving opens the cone</text><rect x="310.0" y="50" width="148" height="16" rx="5" class="fig-grid-fill" opacity="0.5"/><path d="M351.4 42V72" class="fig-accent-stroke" stroke-width="2.6"/><text x="351.44" y="38" class="fig-muted" text-anchor="middle" font-size="8" font-weight="600">counts as still</text><rect x="310.0" y="50" width="74" height="16" rx="5" class="fig-cool-fill"/><text x="334.0" y="78" class="fig-muted" text-anchor="middle" font-size="8" font-weight="600">your speed</text><circle cx="384.0" cy="102" r="8" class="fig-ink-stroke" stroke-width="2.2" fill="none"/><path d="M371.0 102H380.0M388.0 102H397.0M384.0 89V98M384.0 106V115" class="fig-ink-stroke" stroke-width="2.2"/><text x="384.0" y="124" class="fig-muted" text-anchor="middle" font-size="9" font-weight="600">moving, so the cone opens</text><rect x="514" y="34" width="232" height="102" rx="8" class="fig-panel"/><text x="630.0" y="152" class="fig-muted" text-anchor="middle" font-size="11" font-weight="600">it counts as still</text><rect x="556.0" y="50" width="148" height="16" rx="5" class="fig-grid-fill" opacity="0.5"/><path d="M671.4 42V72" class="fig-accent-stroke" stroke-width="2.6"/><text x="671.44" y="38" class="fig-muted" text-anchor="middle" font-size="8" font-weight="600">counts as still</text><rect x="556.0" y="50" width="74" height="16" rx="5" class="fig-cool-fill"/><text x="580.0" y="78" class="fig-muted" text-anchor="middle" font-size="8" font-weight="600">your speed</text><circle cx="630.0" cy="102" r="8" class="fig-ink-stroke" stroke-width="2.2" fill="none"/><path d="M617.0 102H626.0M634.0 102H643.0M630.0 89V98M630.0 106V115" class="fig-ink-stroke" stroke-width="2.2"/><text x="630.0" y="124" class="fig-muted" text-anchor="middle" font-size="9" font-weight="600">it still counts as still</text></g><g transform="translate(0,532)"><text x="12" y="54" class="fig-ink" text-anchor="start" font-size="14" font-weight="700">Spread Decay Delay</text><text x="12" y="72" class="fig-muted" text-anchor="start" font-size="11" font-weight="500">How long after firing before</text><text x="12" y="88" class="fig-muted" text-anchor="start" font-size="11" font-weight="500">spread begins recovering.</text><rect x="268" y="34" width="232" height="102" rx="8" class="fig-panel"/><text x="384.0" y="152" class="fig-muted" text-anchor="middle" font-size="11" font-weight="600">it closes at once</text><path d="M308.0 102H460.0" class="fig-grid-stroke" stroke-width="1.6"/><polyline points="308.0,56.0 330.8,56.0 376.4,102.0 460.0,102.0" class="fig-accent-stroke" stroke-width="2.6" fill="none"/><text x="319.4" y="50" class="fig-muted" text-anchor="middle" font-size="8" font-weight="600">held open</text><text x="384.0" y="124" class="fig-muted" text-anchor="middle" font-size="9" font-weight="600">it starts closing at once</text><rect x="514" y="34" width="232" height="102" rx="8" class="fig-panel"/><text x="630.0" y="152" class="fig-muted" text-anchor="middle" font-size="11" font-weight="600">it stays open</text><path d="M554.0 102H706.0" class="fig-grid-stroke" stroke-width="1.6"/><polyline points="554.0,56.0 648.2,56.0 693.8,102.0 706.0,102.0" class="fig-accent-stroke" stroke-width="2.6" fill="none"/><text x="601.12" y="50" class="fig-muted" text-anchor="middle" font-size="8" font-weight="600">held open</text><text x="630.0" y="124" class="fig-muted" text-anchor="middle" font-size="9" font-weight="600">it stays open a while</text></g><g transform="translate(0,692)"><text x="12" y="54" class="fig-ink" text-anchor="start" font-size="14" font-weight="700">Spread Increase per Shot</text><text x="12" y="72" class="fig-muted" text-anchor="start" font-size="11" font-weight="500">How much each shot widens the</text><text x="12" y="88" class="fig-muted" text-anchor="start" font-size="11" font-weight="500">cone.</text><rect x="268" y="34" width="232" height="102" rx="8" class="fig-panel"/><text x="384.0" y="152" class="fig-muted" text-anchor="middle" font-size="11" font-weight="600">holds tight</text><circle cx="384.0" cy="76" r="12" class="fig-grid-stroke" stroke-width="1.6" stroke-dasharray="4 4" fill="none"/><circle cx="392.6" cy="73.8" r="4" class="fig-target aim-wspreadfields4-0" style="animation-delay:0.00s"/><circle cx="389.2" cy="86.6" r="4" class="fig-target aim-wspreadfields4-0" style="animation-delay:0.09s"/><circle cx="374.8" cy="81.4" r="4" class="fig-target aim-wspreadfields4-0" style="animation-delay:0.18s"/><circle cx="388.8" cy="77.0" r="4" class="fig-target aim-wspreadfields4-0" style="animation-delay:0.27s"/><circle cx="394.6" cy="73.8" r="4" class="fig-target aim-wspreadfields4-0" style="animation-delay:0.36s"/><circle cx="392.2" cy="77.1" r="4" class="fig-target aim-wspreadfields4-0" style="animation-delay:0.45s"/><circle cx="378.9" cy="78.6" r="4" class="fig-target aim-wspreadfields4-0" style="animation-delay:0.54s"/><circle cx="384.0" cy="76" r="8" class="fig-ink-stroke" stroke-width="2.2" fill="none"/><path d="M371.0 76H380.0M388.0 76H397.0M384.0 63V72M384.0 80V89" class="fig-ink-stroke" stroke-width="2.2"/><rect x="514" y="34" width="232" height="102" rx="8" class="fig-panel"/><text x="630.0" y="152" class="fig-muted" text-anchor="middle" font-size="11" font-weight="600">opens fast</text><circle cx="630.0" cy="76" r="34" class="fig-grid-stroke" stroke-width="1.6" stroke-dasharray="4 4" fill="none"/><circle cx="643.0" cy="66.6" r="4" class="fig-target aim-wspreadfields4-1" style="animation-delay:0.00s"/><circle cx="636.7" cy="58.6" r="4" class="fig-target aim-wspreadfields4-1" style="animation-delay:0.09s"/><circle cx="628.4" cy="55.9" r="4" class="fig-target aim-wspreadfields4-1" style="animation-delay:0.18s"/><circle cx="609.2" cy="59.3" r="4" class="fig-target aim-wspreadfields4-1" style="animation-delay:0.27s"/><circle cx="658.6" cy="76.8" r="4" class="fig-target aim-wspreadfields4-1" style="animation-delay:0.36s"/><circle cx="643.6" cy="96.0" r="4" class="fig-target aim-wspreadfields4-1" style="animation-delay:0.45s"/><circle cx="642.7" cy="52.0" r="4" class="fig-target aim-wspreadfields4-1" style="animation-delay:0.54s"/><circle cx="630.0" cy="76" r="8" class="fig-ink-stroke" stroke-width="2.2" fill="none"/><path d="M617.0 76H626.0M634.0 76H643.0M630.0 63V72M630.0 80V89" class="fig-ink-stroke" stroke-width="2.2"/></g><g transform="translate(0,852)"><text x="12" y="54" class="fig-ink" text-anchor="start" font-size="14" font-weight="700">Spread Decrease per Second</text><text x="12" y="72" class="fig-muted" text-anchor="start" font-size="11" font-weight="500">How fast the cone closes again.</text><rect x="268" y="34" width="232" height="102" rx="8" class="fig-panel"/><text x="384.0" y="152" class="fig-muted" text-anchor="middle" font-size="11" font-weight="600">closes slowly</text><circle cx="384.0" cy="76" r="34" class="fig-grid-stroke" stroke-width="1.6" stroke-dasharray="4 4" fill="none"/><circle cx="362.2" cy="63.8" r="4" class="fig-target aim-wspreadfields5-0" style="animation-delay:0.00s"/><circle cx="410.5" cy="55.1" r="4" class="fig-target aim-wspreadfields5-0" style="animation-delay:0.09s"/><circle cx="387.5" cy="54.3" r="4" class="fig-target aim-wspreadfields5-0" style="animation-delay:0.18s"/><circle cx="354.1" cy="69.3" r="4" class="fig-target aim-wspreadfields5-0" style="animation-delay:0.27s"/><circle cx="368.3" cy="67.5" r="4" class="fig-target aim-wspreadfields5-0" style="animation-delay:0.36s"/><circle cx="395.9" cy="107.2" r="4" class="fig-target aim-wspreadfields5-0" style="animation-delay:0.45s"/><circle cx="388.8" cy="78.0" r="4" class="fig-target aim-wspreadfields5-0" style="animation-delay:0.54s"/><circle cx="384.0" cy="76" r="8" class="fig-ink-stroke" stroke-width="2.2" fill="none"/><path d="M371.0 76H380.0M388.0 76H397.0M384.0 63V72M384.0 80V89" class="fig-ink-stroke" stroke-width="2.2"/><rect x="514" y="34" width="232" height="102" rx="8" class="fig-panel"/><text x="630.0" y="152" class="fig-muted" text-anchor="middle" font-size="11" font-weight="600">closes fast</text><circle cx="630.0" cy="76" r="12" class="fig-grid-stroke" stroke-width="1.6" stroke-dasharray="4 4" fill="none"/><circle cx="618.7" cy="76.9" r="4" class="fig-target aim-wspreadfields5-1" style="animation-delay:0.00s"/><circle cx="630.1" cy="83.2" r="4" class="fig-target aim-wspreadfields5-1" style="animation-delay:0.09s"/><circle cx="630.8" cy="80.7" r="4" class="fig-target aim-wspreadfields5-1" style="animation-delay:0.18s"/><circle cx="633.8" cy="73.8" r="4" class="fig-target aim-wspreadfields5-1" style="animation-delay:0.27s"/><circle cx="623.2" cy="73.2" r="4" class="fig-target aim-wspreadfields5-1" style="animation-delay:0.36s"/><circle cx="633.2" cy="74.5" r="4" class="fig-target aim-wspreadfields5-1" style="animation-delay:0.45s"/><circle cx="635.3" cy="81.9" r="4" class="fig-target aim-wspreadfields5-1" style="animation-delay:0.54s"/><circle cx="630.0" cy="76" r="8" class="fig-ink-stroke" stroke-width="2.2" fill="none"/><path d="M617.0 76H626.0M634.0 76H643.0M630.0 63V72M630.0 80V89" class="fig-ink-stroke" stroke-width="2.2"/></g><g transform="translate(0,1012)"><text x="12" y="54" class="fig-ink" text-anchor="start" font-size="14" font-weight="700">Spread Minimum</text><text x="12" y="72" class="fig-muted" text-anchor="start" font-size="11" font-weight="500">The tightest the cone can ever</text><text x="12" y="88" class="fig-muted" text-anchor="start" font-size="11" font-weight="500">be reduced to.</text><rect x="268" y="34" width="232" height="102" rx="8" class="fig-panel"/><text x="384.0" y="152" class="fig-muted" text-anchor="middle" font-size="11" font-weight="600">pinpoint</text><circle cx="384.0" cy="76" r="12" class="fig-grid-stroke" stroke-width="1.6" stroke-dasharray="4 4" fill="none"/><circle cx="379.8" cy="82.5" r="4" class="fig-target aim-wspreadfields6-0" style="animation-delay:0.00s"/><circle cx="376.3" cy="73.6" r="4" class="fig-target aim-wspreadfields6-0" style="animation-delay:0.09s"/><circle cx="391.7" cy="82.2" r="4" class="fig-target aim-wspreadfields6-0" style="animation-delay:0.18s"/><circle cx="389.2" cy="75.0" r="4" class="fig-target aim-wspreadfields6-0" style="animation-delay:0.27s"/><circle cx="381.8" cy="79.6" r="4" class="fig-target aim-wspreadfields6-0" style="animation-delay:0.36s"/><circle cx="379.3" cy="82.6" r="4" class="fig-target aim-wspreadfields6-0" style="animation-delay:0.45s"/><circle cx="376.0" cy="77.5" r="4" class="fig-target aim-wspreadfields6-0" style="animation-delay:0.54s"/><circle cx="384.0" cy="76" r="8" class="fig-ink-stroke" stroke-width="2.2" fill="none"/><path d="M371.0 76H380.0M388.0 76H397.0M384.0 63V72M384.0 80V89" class="fig-ink-stroke" stroke-width="2.2"/><rect x="514" y="34" width="232" height="102" rx="8" class="fig-panel"/><text x="630.0" y="152" class="fig-muted" text-anchor="middle" font-size="11" font-weight="600">never tight</text><circle cx="630.0" cy="76" r="34" class="fig-grid-stroke" stroke-width="1.6" stroke-dasharray="4 4" fill="none"/><circle cx="616.1" cy="94.9" r="4" class="fig-target aim-wspreadfields6-1" style="animation-delay:0.00s"/><circle cx="608.4" cy="61.6" r="4" class="fig-target aim-wspreadfields6-1" style="animation-delay:0.09s"/><circle cx="655.6" cy="79.9" r="4" class="fig-target aim-wspreadfields6-1" style="animation-delay:0.18s"/><circle cx="630.8" cy="105.1" r="4" class="fig-target aim-wspreadfields6-1" style="animation-delay:0.27s"/><circle cx="659.5" cy="74.2" r="4" class="fig-target aim-wspreadfields6-1" style="animation-delay:0.36s"/><circle cx="641.7" cy="95.6" r="4" class="fig-target aim-wspreadfields6-1" style="animation-delay:0.45s"/><circle cx="633.8" cy="95.2" r="4" class="fig-target aim-wspreadfields6-1" style="animation-delay:0.54s"/><circle cx="630.0" cy="76" r="8" class="fig-ink-stroke" stroke-width="2.2" fill="none"/><path d="M617.0 76H626.0M634.0 76H643.0M630.0 63V72M630.0 80V89" class="fig-ink-stroke" stroke-width="2.2"/></g><g transform="translate(0,1172)"><text x="12" y="54" class="fig-ink" text-anchor="start" font-size="14" font-weight="700">Spread Maximum</text><text x="12" y="72" class="fig-muted" text-anchor="start" font-size="11" font-weight="500">The widest the cone can ever</text><text x="12" y="88" class="fig-muted" text-anchor="start" font-size="11" font-weight="500">reach.</text><rect x="268" y="34" width="232" height="102" rx="8" class="fig-panel"/><text x="384.0" y="152" class="fig-muted" text-anchor="middle" font-size="11" font-weight="600">capped</text><circle cx="384.0" cy="76" r="12" class="fig-grid-stroke" stroke-width="1.6" stroke-dasharray="4 4" fill="none"/><circle cx="389.6" cy="74.6" r="4" class="fig-target aim-wspreadfields7-0" style="animation-delay:0.00s"/><circle cx="383.9" cy="82.0" r="4" class="fig-target aim-wspreadfields7-0" style="animation-delay:0.09s"/><circle cx="380.6" cy="81.2" r="4" class="fig-target aim-wspreadfields7-0" style="animation-delay:0.18s"/><circle cx="379.3" cy="85.4" r="4" class="fig-target aim-wspreadfields7-0" style="animation-delay:0.27s"/><circle cx="375.9" cy="80.2" r="4" class="fig-target aim-wspreadfields7-0" style="animation-delay:0.36s"/><circle cx="382.8" cy="70.6" r="4" class="fig-target aim-wspreadfields7-0" style="animation-delay:0.45s"/><circle cx="393.4" cy="81.3" r="4" class="fig-target aim-wspreadfields7-0" style="animation-delay:0.54s"/><circle cx="384.0" cy="76" r="8" class="fig-ink-stroke" stroke-width="2.2" fill="none"/><path d="M371.0 76H380.0M388.0 76H397.0M384.0 63V72M384.0 80V89" class="fig-ink-stroke" stroke-width="2.2"/><rect x="514" y="34" width="232" height="102" rx="8" class="fig-panel"/><text x="630.0" y="152" class="fig-muted" text-anchor="middle" font-size="11" font-weight="600">wide open</text><circle cx="630.0" cy="76" r="34" class="fig-grid-stroke" stroke-width="1.6" stroke-dasharray="4 4" fill="none"/><circle cx="626.5" cy="86.7" r="4" class="fig-target aim-wspreadfields7-1" style="animation-delay:0.00s"/><circle cx="649.0" cy="69.6" r="4" class="fig-target aim-wspreadfields7-1" style="animation-delay:0.09s"/><circle cx="638.9" cy="107.2" r="4" class="fig-target aim-wspreadfields7-1" style="animation-delay:0.18s"/><circle cx="657.8" cy="84.8" r="4" class="fig-target aim-wspreadfields7-1" style="animation-delay:0.27s"/><circle cx="621.2" cy="88.2" r="4" class="fig-target aim-wspreadfields7-1" style="animation-delay:0.36s"/><circle cx="621.8" cy="90.9" r="4" class="fig-target aim-wspreadfields7-1" style="animation-delay:0.45s"/><circle cx="608.9" cy="53.2" r="4" class="fig-target aim-wspreadfields7-1" style="animation-delay:0.54s"/><circle cx="630.0" cy="76" r="8" class="fig-ink-stroke" stroke-width="2.2" fill="none"/><path d="M617.0 76H626.0M634.0 76H643.0M630.0 63V72M630.0 80V89" class="fig-ink-stroke" stroke-width="2.2"/></g></svg>
