{
  "accessors": [
    {
      "bufferView": 3,
      "componentType": 5126,
      "count": 8554,
      "max": [
        26.942777633666992,
        151.43557739257813,
        16.4266357421875
      ],
      "min": [
        -26.942777633666992,
        110.2350082397461,
        -67.05818176269531
      ],
      "type": "VEC3"
    },
    {
      "bufferView": 3,
      "byteOffset": 102648,
      "componentType": 5126,
      "count": 8554,
      "max": [
        0.9999881982803345,
        0.9999480247497559,
        0.9541082978248596
      ],
      "min": [
        -0.9999881982803345,
        -0.9999499320983887,
        -0.9986380338668823
      ],
      "type": "VEC3"
    },
    {
      "bufferView": 2,
      "componentType": 5126,
      "count": 8554,
      "max": [
        0.0,
        0.0
      ],
      "min": [
        0.0,
        0.0
      ],
      "type": "VEC2"
    },
    {
      "bufferView": 1,
      "componentType": 5125,
      "count": 51072,
      "type": "SCALAR"
    },
    {
      "bufferView": 5,
      "componentType": 5126,
      "count": 46,
      "max": [
        1.0,
        0.9982092380523682,
        0.44105908274650574,
        0.0,
        0.9982092976570129,
        1.0000001192092896,
        0.8361672759056091,
        0.0,
        0.44769540429115295,
        1.1920360520889517e-07,
        1.0000001192092896,
        0.0,
        153.9293670654297,
        141.4146728515625,
        122.19247436523438,
        1.0
      ],
      "min": [
        -0.9998989105224609,
        -0.9982092380523682,
        -0.44105932116508484,
        0.0,
        -0.9982092976570129,
        -1.0000001192092896,
        -0.9998986124992371,
        0.0,
        -0.44769442081451416,
        -0.9999631643295288,
        -0.7310267686843872,
        0.0,
        -153.92933654785156,
        -115.64090728759766,
        -103.80242156982422,
        1.0
      ],
      "type": "MAT4"
    },
    {
      "bufferView": 0,
      "componentType": 5123,
      "count": 8554,
      "type": "VEC4"
    },
    {
      "bufferView": 4,
      "componentType": 5126,
      "count": 8554,
      "max": [
        1.0,
        0.4991232454776764,
        0.31365346908569336,
        0.22350789606571198
      ],
      "min": [
        0.2888239324092865,
        0.0,
        0.0,
        0.0
      ],
      "type": "VEC4"
    }
  ],
  "asset": {
    "extras": {
      "author": "Miles0707 (https://sketchfab.com/milesdiduck)",
      "license": "CC-BY-4.0 (http://creativecommons.org/licenses/by/4.0/)",
      "source": "https://sketchfab.com/3d-models/fps-arm-rig-18ce86b6b26e4ae1b02d2d695b669b62",
      "title": "FPS Arm Rig"
    },
    "generator": "Sketchfab-13.12.0",
    "version": "2.0"
  },
  "bufferViews": [
    {
      "buffer": 0,
      "byteLength": 68432,
      "byteStride": 8,
      "name": "shortBufferViews",
      "target": 34962
    },
    {
      "buffer": 0,
      "byteLength": 204288,
      "byteOffset": 68432,
      "name": "floatBufferViews",
      "target": 34963
    },
    {
      "buffer": 0,
      "byteLength": 68432,
      "byteOffset": 272720,
      "byteStride": 8,
      "name": "floatBufferViews",
      "target": 34962
    },
    {
      "buffer": 0,
      "byteLength": 205296,
      "byteOffset": 341152,
      "byteStride": 12,
      "name": "floatBufferViews",
      "target": 34962
    },
    {
      "buffer": 0,
      "byteLength": 136864,
      "byteOffset": 546448,
      "byteStride": 16,
      "name": "floatBufferViews",
      "target": 34962
    },
    {
      "buffer": 0,
      "byteLength": 2944,
      "byteOffset": 683312,
      "name": "floatBufferViews"
    }
  ],
  "buffers": [
    {
      "byteLength": 686256,
      "uri": "scene.bin"
    }
  ],
  "materials": [
    {
      "doubleSided": true,
      "name": "Scene_-_Root",
      "pbrMetallicRoughness": {
        "metallicFactor": 0.0,
        "roughnessFactor": 0.6
      }
    }
  ],
  "meshes": [
    {
      "name": "Object_0",
      "primitives": [
        {
          "attributes": {
            "JOINTS_0": 5,
            "NORMAL": 1,
            "POSITION": 0,
            "TEXCOORD_0": 2,
            "WEIGHTS_0": 6
          },
          "indices": 3,
          "material": 0,
          "mode": 4
        }
      ]
    }
  ],
  "nodes": [
    {
      "children": [
        1
      ],
      "matrix": [
        1.0,
        0.0,
        0.0,
        0.0,
        0.0,
        2.220446049250313e-16,
        -1.0,
        0.0,
        0.0,
        1.0,
        2.220446049250313e-16,
        0.0,
        0.0,
        0.0,
        0.0,
        1.0
      ],
      "name": "Sketchfab_model"
    },
    {
      "children": [
        2
      ],
      "name": "root"
    },
    {
      "children": [
        3
      ],
      "matrix": [
        1.0,
        0.0,
        0.0,
        0.0,
        0.0,
        2.220446049250313e-16,
        1.0,
        0.0,
        0.0,
        -1.0,
        2.220446049250313e-16,
        0.0,
        0.0,
        0.0,
        0.0,
        1.0
      ],
      "name": "GLTF_SceneRootNode"
    },
    {
      "children": [
        4
      ],
      "name": "Armature_47"
    },
    {
      "children": [
        5,
        7,
        6
      ],
      "name": "GLTF_created_0"
    },
    {
      "children": [
        8
      ],
      "name": "GLTF_created_0_rootJoint"
    },
    {
      "name": "Mid Poly Arm_46"
    },
    {
      "mesh": 0,
      "name": "Object_7",
      "skin": 0
    },
    {
      "children": [
        9,
        29,
        30,
        31,
        32,
        33
      ],
      "name": "Root_45",
      "rotation": [
        -2.9802322387695313e-08,
        0.0,
        0.0,
        1.0
      ],
      "scale": [
        1.0,
        0.9999998807907104,
        0.9999998807907104
      ],
      "translation": [
        0.0,
        114.2208251953125,
        0.0
      ]
    },
    {
      "children": [
        10
      ],
      "name": "Shoulder.R_20",
      "rotation": [
        1.3215496892371448e-06,
        1.2092207271052757e-06,
        -0.7279487252235413,
        0.6856315732002258
      ],
      "scale": [
        1.0,
        1.0,
        0.9999999403953552
      ],
      "translation": [
        -9.519662853563204e-07,
        39.98463439941406,
        13.170597076416016
      ]
    },
    {
      "children": [
        11
      ],
      "name": "Upper Arm.R_19",
      "rotation": [
        -0.1542019098997116,
        0.17196285724639893,
        -0.6460767984390259,
        0.7274856567382813
      ],
      "scale": [
        1.0000001192092896,
        0.9999998807907104,
        1.0
      ],
      "translation": [
        -3.375935193616897e-05,
        18.449665069580078,
        1.0413245945528615e-05
      ]
    },
    {
      "children": [
        12
      ],
      "name": "Elbow.R_18",
      "rotation": [
        0.019026771187782288,
        -0.965396523475647,
        0.25797808170318604,
        0.03309004008769989
      ],
      "scale": [
        1.0,
        1.0000015497207642,
        1.000000238418579
      ],
      "translation": [
        -1.6404633242927957e-06,
        35.90976333618164,
        4.6422787818301e-06
      ]
    },
    {
      "children": [
        13
      ],
      "name": "Forearm.R_17",
      "rotation": [
        -0.05325224623084068,
        0.9562074542045593,
        0.28763657808303833,
        0.00983193889260292
      ],
      "scale": [
        1.000000238418579,
        1.0000004768371582,
        1.0
      ],
      "translation": [
        2.0158063307462726e-07,
        4.471639633178711,
        2.0905756173306145e-05
      ]
    },
    {
      "children": [
        14,
        17,
        20,
        23,
        26
      ],
      "name": "Hand.R_16",
      "rotation": [
        0.002722890116274357,
        -0.12277738004922867,
        -0.012085639871656895,
        0.9923569560050964
      ],
      "scale": [
        1.0,
        1.0,
        0.9999999403953552
      ],
      "translation": [
        2.5033950805664063e-06,
        32.46089553833008,
        -1.911073923110962e-05
      ]
    },
    {
      "children": [
        15
      ],
      "name": "Thumb 3.R_3",
      "rotation": [
        -0.3997459411621094,
        0.0665840357542038,
        0.03696516528725624,
        0.9134567975997925
      ],
      "scale": [
        0.9999998211860657,
        1.0,
        1.0
      ],
      "translation": [
        -0.33340829610824585,
        3.214233875274658,
        -2.858046054840088
      ]
    },
    {
      "children": [
        16
      ],
      "name": "Thumb 2.R_2",
      "rotation": [
        0.1712130308151245,
        -0.01003782358020544,
        -0.050179895013570786,
        0.9839041233062744
      ],
      "scale": [
        0.9999999403953552,
        1.0,
        1.0
      ],
      "translation": [
        2.8827257665398065e-06,
        4.616910934448242,
        -1.5174242435023189e-05
      ]
    },
    {
      "name": "Thumb 1.R_1",
      "rotation": [
        0.14899024367332458,
        -0.13807088136672974,
        -0.04406912624835968,
        0.9781596660614014
      ],
      "scale": [
        0.9999999403953552,
        0.9999998807907104,
        0.9999998211860657
      ],
      "translation": [
        1.078258082998218e-05,
        5.381624221801758,
        -5.669267920893617e-06
      ]
    },
    {
      "children": [
        18
      ],
      "name": "Index 3.R_6",
      "rotation": [
        -0.031881194561719894,
        0.0962449386715889,
        -0.022503148764371872,
        0.9945924878120422
      ],
      "scale": [
        0.9999999403953552,
        1.0,
        0.9999998807907104
      ],
      "translation": [
        -2.7965660095214844,
        12.76767349243164,
        -2.170289993286133
      ]
    },
    {
      "children": [
        19
      ],
      "name": "Index 2.R_5",
      "rotation": [
        0.029801707714796066,
        0.0009091153624467552,
        -0.10119840502738953,
        0.9944193959236145
      ],
      "scale": [
        0.9999999403953552,
        0.9999998211860657,
        1.0
      ],
      "translation": [
        7.474799303963664e-07,
        7.173930644989014,
        -1.0000016118283384e-05
      ]
    },
    {
      "name": "Index 1.R_4",
      "rotation": [
        -0.017994564026594162,
        0.005255131982266903,
        -0.05860140547156334,
        0.998105525970459
      ],
      "scale": [
        1.0,
        1.0,
        0.9999999403953552
      ],
      "translation": [
        -1.3991991636430612e-06,
        4.594357490539551,
        -2.7216458420298295e-06
      ]
    },
    {
      "children": [
        21
      ],
      "name": "Ring 3.R_9",
      "rotation": [
        0.08528925478458405,
        0.11016695201396942,
        -0.006190811283886433,
        0.9902275800704956
      ],
      "scale": [
        1.0,
        1.0,
        1.0000001192092896
      ],
      "translation": [
        -1.974422812461853,
        12.47961711883545,
        3.3480989933013916
      ]
    },
    {
      "children": [
        22
      ],
      "name": "Ring 2.R_8",
      "rotation": [
        -0.015457402914762497,
        0.0005495130317285657,
        -0.11011739075183868,
        0.9937982559204102
      ],
      "scale": [
        0.9999999403953552,
        0.9999998807907104,
        0.9999998807907104
      ],
      "translation": [
        -7.026515049801674e-06,
        6.457235336303711,
        -7.644961442565545e-06
      ]
    },
    {
      "name": "Ring 1.R_7",
      "rotation": [
        0.002559225307777524,
        0.003498953767120838,
        -0.06955789774656296,
        0.9975684881210327
      ],
      "scale": [
        0.9999999403953552,
        1.0,
        0.9999998807907104
      ],
      "translation": [
        -3.175086249029846e-06,
        5.010733604431152,
        3.3551948490639916e-06
      ]
    },
    {
      "children": [
        24
      ],
      "name": "Little 3.R_12",
      "rotation": [
        0.13363610208034515,
        0.1148543655872345,
        -0.019257985055446625,
        0.9841641187667847
      ],
      "scale": [
        0.9999998807907104,
        0.9999998211860657,
        0.9999999403953552
      ],
      "translation": [
        -0.8980502486228943,
        11.110923767089844,
        5.498680114746094
      ]
    },
    {
      "children": [
        25
      ],
      "name": "Little 2.R_11",
      "rotation": [
        -0.03791447728872299,
        -0.001765016932040453,
        -0.14627909660339355,
        0.9885149598121643
      ],
      "scale": [
        0.9999999403953552,
        0.9999997019767761,
        1.0
      ],
      "translation": [
        -1.7881393432617188e-06,
        5.436121940612793,
        -2.294778823852539e-05
      ]
    },
    {
      "name": "Little 1.R_10",
      "rotation": [
        -0.007947786711156368,
        -0.010430198162794113,
        -0.08240727335214615,
        0.9965124726295471
      ],
      "scale": [
        0.9999998807907104,
        0.9999998211860657,
        1.000000238418579
      ],
      "translation": [
        5.080233222543029e-06,
        3.284541606903076,
        -1.1205917871848214e-05
      ]
    },
    {
      "children": [
        27
      ],
      "name": "Middle 3.R_15",
      "rotation": [
        0.044070884585380554,
        0.10469789803028107,
        -0.01434825174510479,
        0.9934234619140625
      ],
      "scale": [
        0.9999999403953552,
        1.0000001192092896,
        0.9999999403953552
      ],
      "translation": [
        -2.72363543510437,
        13.25210952758789,
        0.4825381338596344
      ]
    },
    {
      "children": [
        28
      ],
      "name": "Middle 2.R_14",
      "rotation": [
        -0.0013058014446869493,
        0.004159674514085054,
        -0.10836665332317352,
        0.9941014051437378
      ],
      "scale": [
        0.9999998211860657,
        0.9999998211860657,
        1.0
      ],
      "translation": [
        -1.830233600230713e-06,
        7.007153034210205,
        -1.178459388029296e-05
      ]
    },
    {
      "name": "Middle 1.R_13",
      "rotation": [
        -0.0016347095370292664,
        0.00256791221909225,
        -0.06795596331357956,
        0.9976837038993835
      ],
      "scale": [
        1.0,
        0.9999998807907104,
        1.0
      ],
      "translation": [
        7.594111593789421e-06,
        5.288589000701904,
        -1.342974337603664e-05
      ]
    },
    {
      "name": "Hand IK.R_21",
      "rotation": [
        -0.09569240361452103,
        0.6987271904945374,
        -0.703038215637207,
        0.09143690764904022
      ],
      "scale": [
        0.9999998807907104,
        1.0000001192092896,
        1.0
      ],
      "translation": [
        21.855571746826172,
        4.449827194213867,
        -39.02311325073242
      ]
    },
    {
      "name": "Elbow IK.R_22",
      "rotation": [
        -0.007108227349817753,
        4.296801629777303e-15,
        0.9999747276306152,
        4.0072753448860965e-10
      ],
      "translation": [
        20.6990909576416,
        -9.430770874023438,
        -2.5366787910461426
      ]
    },
    {
      "name": "Hand IK.L_23",
      "rotation": [
        -0.09569240361452103,
        -0.6987271904945374,
        0.703038215637207,
        0.09143690764904022
      ],
      "scale": [
        0.9999998807907104,
        1.0000001192092896,
        1.0
      ],
      "translation": [
        -21.855571746826172,
        4.449827194213867,
        -39.02311325073242
      ]
    },
    {
      "name": "Elbow IK.L_24",
      "rotation": [
        0.007108227349817753,
        4.296801629777303e-15,
        0.9999747276306152,
        -4.0072753448860965e-10
      ],
      "translation": [
        -20.6990909576416,
        -9.430770874023438,
        -2.5366787910461426
      ]
    },
    {
      "children": [
        34
      ],
      "name": "Shoulder.L_44",
      "rotation": [
        3.245249047267862e-07,
        -2.701552546113817e-07,
        0.7279487252235413,
        0.6856315732002258
      ],
      "scale": [
        1.0,
        1.0,
        0.9999999403953552
      ],
      "translation": [
        -9.7294812180862e-14,
        39.98463439941406,
        13.170597076416016
      ]
    },
    {
      "children": [
        35
      ],
      "name": "Upper Arm.L_43",
      "rotation": [
        -0.15420278906822205,
        -0.17196394503116608,
        0.646076500415802,
        0.7274854779243469
      ],
      "scale": [
        1.0000004768371582,
        1.0000001192092896,
        1.000000238418579
      ],
      "translation": [
        4.552200607577106e-06,
        18.449670791625977,
        -1.0854505489987787e-05
      ]
    },
    {
      "children": [
        36
      ],
      "name": "Elbow.L_42",
      "rotation": [
        0.019027898088097572,
        0.9653965830802917,
        -0.25797751545906067,
        0.03309093788266182
      ],
      "scale": [
        1.000000238418579,
        1.0000003576278687,
        0.9999998211860657
      ],
      "translation": [
        -3.0630412766186055e-06,
        35.909786224365234,
        2.104485758991359e-07
      ]
    },
    {
      "children": [
        37
      ],
      "name": "Forearm.L_41",
      "rotation": [
        0.05325222387909889,
        0.9562074542045593,
        0.28763672709465027,
        -0.009832157753407955
      ],
      "scale": [
        1.0000001192092896,
        1.000001072883606,
        0.9999998807907104
      ],
      "translation": [
        -6.556031621585134e-06,
        4.471631050109863,
        2.6254807380610146e-05
      ]
    },
    {
      "children": [
        38,
        41,
        44,
        47,
        50
      ],
      "name": "Hand.L_40",
      "rotation": [
        0.0027230591513216496,
        0.12277740240097046,
        0.012085464783012867,
        0.9923568964004517
      ],
      "scale": [
        1.0,
        1.0000001192092896,
        0.9999998807907104
      ],
      "translation": [
        -2.9465884381352225e-06,
        32.46089553833008,
        -1.650801823416259e-05
      ]
    },
    {
      "children": [
        39
      ],
      "name": "Thumb 3.L_27",
      "rotation": [
        -0.39974620938301086,
        -0.06658371537923813,
        -0.03696532920002937,
        0.9134566783905029
      ],
      "scale": [
        0.9999997615814209,
        1.0,
        1.0
      ],
      "translation": [
        0.33340927958488464,
        3.2142505645751953,
        -2.858037233352661
      ]
    },
    {
      "children": [
        40
      ],
      "name": "Thumb 2.L_26",
      "rotation": [
        0.17121338844299316,
        0.010037553496658802,
        0.05017993971705437,
        0.9839040637016296
      ],
      "scale": [
        0.9999999403953552,
        1.0,
        1.0
      ],
      "translation": [
        -5.0464150262996554e-06,
        4.616897106170654,
        -1.274559417652199e-05
      ]
    },
    {
      "name": "Thumb 1.L_25",
      "rotation": [
        0.14899015426635742,
        0.13807101547718048,
        0.04406917840242386,
        0.9781596660614014
      ],
      "scale": [
        1.0000001192092896,
        1.0,
        1.0000001192092896
      ],
      "translation": [
        4.037912276544375e-06,
        5.381619453430176,
        -1.7967046005651355e-05
      ]
    },
    {
      "children": [
        42
      ],
      "name": "Index 3.L_30",
      "rotation": [
        -0.03188113495707512,
        -0.0962449386715889,
        0.022502992302179337,
        0.9945924878120422
      ],
      "scale": [
        0.9999998807907104,
        1.0000001192092896,
        0.9999998807907104
      ],
      "translation": [
        2.796572685241699,
        12.767669677734375,
        -2.170292377471924
      ]
    },
    {
      "children": [
        43
      ],
      "name": "Index 2.L_29",
      "rotation": [
        0.029801659286022186,
        -0.0009090269450098276,
        0.10119829326868057,
        0.9944193959236145
      ],
      "scale": [
        1.0000001192092896,
        1.000000238418579,
        0.9999998807907104
      ],
      "translation": [
        -5.617864644591464e-07,
        7.173933029174805,
        -2.7179174139746465e-05
      ]
    },
    {
      "name": "Index 1.L_28",
      "rotation": [
        -0.017994478344917297,
        -0.005255392286926508,
        0.05860085412859917,
        0.9981054663658142
      ],
      "scale": [
        1.000000238418579,
        1.0000001192092896,
        0.9999999403953552
      ],
      "translation": [
        9.098308510147035e-06,
        4.5943603515625,
        -7.750704753561877e-06
      ]
    },
    {
      "children": [
        45
      ],
      "name": "Ring 3.L_33",
      "rotation": [
        0.08528926223516464,
        -0.11016707867383957,
        0.006190669722855091,
        0.9902275800704956
      ],
      "scale": [
        0.9999998807907104,
        0.9999999403953552,
        0.9999998807907104
      ],
      "translation": [
        1.9744292497634888,
        12.4796142578125,
        3.3481056690216064
      ]
    },
    {
      "children": [
        46
      ],
      "name": "Ring 2.L_32",
      "rotation": [
        -0.015457440167665482,
        -0.0005495107616297901,
        0.11011737585067749,
        0.9937982559204102
      ],
      "scale": [
        0.9999999403953552,
        0.9999999403953552,
        1.0
      ],
      "translation": [
        4.970543614035705e-06,
        6.457242488861084,
        -2.1282479792716913e-05
      ]
    },
    {
      "name": "Ring 1.L_31",
      "rotation": [
        0.0025589631404727697,
        -0.0034990778658539057,
        0.0695575624704361,
        0.9975686073303223
      ],
      "scale": [
        0.9999998211860657,
        0.9999997019767761,
        0.9999997615814209
      ],
      "translation": [
        4.410743713378906e-06,
        5.010726451873779,
        3.3974647521972656e-06
      ]
    },
    {
      "children": [
        48
      ],
      "name": "Little 3.L_36",
      "rotation": [
        0.13363608717918396,
        -0.11485462635755539,
        0.019257957115769386,
        0.9841641783714294
      ],
      "scale": [
        0.9999998807907104,
        0.9999999403953552,
        1.0
      ],
      "translation": [
        0.8980533480644226,
        11.11092758178711,
        5.498685359954834
      ]
    },
    {
      "children": [
        49
      ],
      "name": "Little 2.L_35",
      "rotation": [
        -0.03791428729891777,
        0.001764889806509018,
        0.14627909660339355,
        0.9885149598121643
      ],
      "scale": [
        0.9999998807907104,
        0.9999998211860657,
        0.9999998807907104
      ],
      "translation": [
        6.5294602791254874e-06,
        5.436137676239014,
        1.359463385597337e-05
      ]
    },
    {
      "name": "Little 1.L_34",
      "rotation": [
        -0.007947896607220173,
        0.01043018326163292,
        0.08240679651498795,
        0.9965124726295471
      ],
      "scale": [
        0.9999998211860657,
        0.9999998807907104,
        1.0
      ],
      "translation": [
        -8.706631888344418e-06,
        3.284524917602539,
        6.301508619799279e-06
      ]
    },
    {
      "children": [
        51
      ],
      "name": "Middle 3.L_39",
      "rotation": [
        0.04407092183828354,
        -0.10469833016395569,
        0.014348081313073635,
        0.9934234619140625
      ],
      "scale": [
        0.9999998211860657,
        1.0,
        0.9999998807907104
      ],
      "translation": [
        2.723642349243164,
        13.252095222473145,
        0.48253512382507324
      ]
    },
    {
      "children": [
        52
      ],
      "name": "Middle 2.L_38",
      "rotation": [
        -0.0013058253098279238,
        -0.004159288480877876,
        0.10836664587259293,
        0.9941014647483826
      ],
      "scale": [
        1.0,
        1.0,
        0.9999999403953552
      ],
      "translation": [
        1.0728836059570313e-06,
        7.007144927978516,
        1.1920928955078125e-06
      ]
    },
    {
      "name": "Middle 1.L_37",
      "rotation": [
        -0.001634780433960259,
        -0.0025678984820842743,
        0.06795600056648254,
        0.9976837635040283
      ],
      "scale": [
        1.0,
        1.0,
        0.9999998807907104
      ],
      "translation": [
        6.799727998441085e-07,
        5.288593769073486,
        -3.021138354597497e-06
      ]
    }
  ],
  "scene": 0,
  "scenes": [
    {
      "name": "Sketchfab_Scene",
      "nodes": [
        0
      ]
    }
  ],
  "skins": [
    {
      "inverseBindMatrices": 4,
      "joints": [
        5,
        8,
        9,
        10,
        11,
        12,
        13,
        14,
        15,
        16,
        17,
        18,
        19,
        20,
        21,
        22,
        23,
        24,
        25,
        26,
        27,
        28,
        29,
        30,
        31,
        32,
        33,
        34,
        35,
        36,
        37,
        38,
        39,
        40,
        41,
        42,
        43,
        44,
        45,
        46,
        47,
        48,
        49,
        50,
        51,
        52
      ],
      "skeleton": 5
    }
  ]
}
