{
  "accessors": [
    {
      "bufferView": 2,
      "componentType": 5126,
      "count": 247,
      "max": [
        550.454833984375,
        477.7843322753906,
        592.7715454101563
      ],
      "min": [
        -113.8902359008789,
        -95.56106567382813,
        219.8775177001953
      ],
      "type": "VEC3"
    },
    {
      "bufferView": 2,
      "byteOffset": 2964,
      "componentType": 5126,
      "count": 247,
      "max": [
        0.9255489706993103,
        0.9999971389770508,
        0.9875376224517822
      ],
      "min": [
        -0.14990408718585968,
        -0.9950550198554993,
        -0.9999577403068542
      ],
      "type": "VEC3"
    },
    {
      "bufferView": 3,
      "componentType": 5126,
      "count": 247,
      "max": [
        0.9999982118606567,
        0.9999991655349731,
        0.21981218457221985,
        1.0
      ],
      "min": [
        -0.9999485611915588,
        -0.9982832670211792,
        -0.6460680365562439,
        1.0
      ],
      "type": "VEC4"
    },
    {
      "bufferView": 1,
      "componentType": 5126,
      "count": 247,
      "max": [
        1.0,
        0.9805589914321899
      ],
      "min": [
        0.048496000468730927,
        0.0
      ],
      "type": "VEC2"
    },
    {
      "bufferView": 0,
      "componentType": 5125,
      "count": 624,
      "type": "SCALAR"
    },
    {
      "bufferView": 2,
      "byteOffset": 5928,
      "componentType": 5126,
      "count": 3085,
      "max": [
        550.454833984375,
        477.7843322753906,
        603.42138671875
      ],
      "min": [
        -576.3915405273438,
        -95.56106567382813,
        209.34259033203125
      ],
      "type": "VEC3"
    },
    {
      "bufferView": 2,
      "byteOffset": 42948,
      "componentType": 5126,
      "count": 3085,
      "max": [
        0.9989803433418274,
        1.0,
        0.9999628663063049
      ],
      "min": [
        -0.9999998807907104,
        -1.0,
        -0.9999995231628418
      ],
      "type": "VEC3"
    },
    {
      "bufferView": 3,
      "byteOffset": 3952,
      "componentType": 5126,
      "count": 3085,
      "max": [
        0.9999971985816956,
        0.9999997615814209,
        0.822704553604126,
        1.0
      ],
      "min": [
        -0.9999675750732422,
        -1.0,
        -0.9470170140266418,
        -1.0
      ],
      "type": "VEC4"
    },
    {
      "bufferView": 1,
      "byteOffset": 1976,
      "componentType": 5126,
      "count": 3085,
      "max": [
        0.997169017791748,
        0.995872974395752
      ],
      "min": [
        0.0,
        0.0
      ],
      "type": "VEC2"
    },
    {
      "bufferView": 0,
      "byteOffset": 2496,
      "componentType": 5125,
      "count": 10725,
      "type": "SCALAR"
    },
    {
      "bufferView": 2,
      "byteOffset": 79968,
      "componentType": 5126,
      "count": 28,
      "max": [
        -420.9590759277344,
        424.53668212890625,
        230.05430603027344
      ],
      "min": [
        -575.1482543945313,
        -42.483001708984375,
        210.667236328125
      ],
      "type": "VEC3"
    },
    {
      "bufferView": 2,
      "byteOffset": 80304,
      "componentType": 5126,
      "count": 28,
      "max": [
        -0.506341278553009,
        0.6816500425338745,
        -0.498619943857193
      ],
      "min": [
        -0.7130579948425293,
        -0.6816504001617432,
        -0.7519131898880005
      ],
      "type": "VEC3"
    },
    {
      "bufferView": 3,
      "byteOffset": 53312,
      "componentType": 5126,
      "count": 28,
      "max": [
        0.8052536249160767,
        0.9997080564498901,
        0.020545652136206627,
        1.0
      ],
      "min": [
        -0.8017111420631409,
        0.5928917527198792,
        -0.029947882518172264,
        1.0
      ],
      "type": "VEC4"
    },
    {
      "bufferView": 1,
      "byteOffset": 26656,
      "componentType": 5126,
      "count": 28,
      "max": [
        0.21542799472808838,
        0.4699319899082184
      ],
      "min": [
        0.016140999272465706,
        0.4433009922504425
      ],
      "type": "VEC2"
    },
    {
      "bufferView": 0,
      "byteOffset": 45396,
      "componentType": 5125,
      "count": 78,
      "type": "SCALAR"
    },
    {
      "bufferView": 2,
      "byteOffset": 80640,
      "componentType": 5126,
      "count": 13896,
      "max": [
        425.2575988769531,
        251.73216247558594,
        524.4671630859375
      ],
      "min": [
        217.12625122070313,
        133.55294799804688,
        317.1234436035156
      ],
      "type": "VEC3"
    },
    {
      "bufferView": 2,
      "byteOffset": 247392,
      "componentType": 5126,
      "count": 13896,
      "max": [
        0.9965161085128784,
        1.0,
        0.995185375213623
      ],
      "min": [
        -0.995187520980835,
        -1.0,
        -0.9995489716529846
      ],
      "type": "VEC3"
    },
    {
      "bufferView": 3,
      "byteOffset": 53760,
      "componentType": 5126,
      "count": 13896,
      "max": [
        0.975024402141571,
        1.0,
        0.9999279975891113,
        1.0
      ],
      "min": [
        -0.9816383719444275,
        -1.0,
        -0.9851282238960266,
        -1.0
      ],
      "type": "VEC4"
    },
    {
      "bufferView": 1,
      "byteOffset": 26880,
      "componentType": 5126,
      "count": 13896,
      "max": [
        0.982466995716095,
        1.0
      ],
      "min": [
        0.0,
        0.19322499632835388
      ],
      "type": "VEC2"
    },
    {
      "bufferView": 0,
      "byteOffset": 45708,
      "componentType": 5125,
      "count": 31305,
      "type": "SCALAR"
    },
    {
      "bufferView": 2,
      "byteOffset": 414144,
      "componentType": 5126,
      "count": 220,
      "max": [
        413.9603576660156,
        409.24542236328125,
        232.15159606933594
      ],
      "min": [
        -543.3602905273438,
        -27.191665649414063,
        207.1024627685547
      ],
      "type": "VEC3"
    },
    {
      "bufferView": 2,
      "byteOffset": 416784,
      "componentType": 5126,
      "count": 220,
      "max": [
        0.4542238414287567,
        0.6143930554389954,
        -0.7837791442871094
      ],
      "min": [
        -0.5863156914710999,
        -0.6143930554389954,
        -0.9999731183052063
      ],
      "type": "VEC3"
    },
    {
      "bufferView": 3,
      "byteOffset": 276096,
      "componentType": 5126,
      "count": 220,
      "max": [
        0.9998738169670105,
        0.38156458735466003,
        0.5863012075424194,
        1.0
      ],
      "min": [
        -0.9951688051223755,
        -0.21946436166763306,
        -0.13289318978786469,
        1.0
      ],
      "type": "VEC4"
    },
    {
      "bufferView": 1,
      "byteOffset": 138048,
      "componentType": 5126,
      "count": 220,
      "max": [
        0.8347430229187012,
        0.8916620016098022
      ],
      "min": [
        0.1843309998512268,
        0.02261500060558319
      ],
      "type": "VEC2"
    },
    {
      "bufferView": 0,
      "byteOffset": 170928,
      "componentType": 5125,
      "count": 702,
      "type": "SCALAR"
    }
  ],
  "asset": {
    "extras": {
      "author": "kimberly.h (https://sketchfab.com/kimberly.h)",
      "license": "CC-BY-4.0 (http://creativecommons.org/licenses/by/4.0/)",
      "source": "https://sketchfab.com/3d-models/razer-viper-mini-85e1735704c645e5aaead0278a1038fe",
      "title": "Razer Viper Mini"
    },
    "generator": "Sketchfab-12.68.0",
    "version": "2.0"
  },
  "bufferViews": [
    {
      "buffer": 0,
      "byteLength": 173736,
      "name": "floatBufferViews",
      "target": 34963
    },
    {
      "buffer": 0,
      "byteLength": 139808,
      "byteOffset": 173736,
      "byteStride": 8,
      "name": "floatBufferViews",
      "target": 34962
    },
    {
      "buffer": 0,
      "byteLength": 419424,
      "byteOffset": 313544,
      "byteStride": 12,
      "name": "floatBufferViews",
      "target": 34962
    },
    {
      "buffer": 0,
      "byteLength": 279616,
      "byteOffset": 732968,
      "byteStride": 16,
      "name": "floatBufferViews",
      "target": 34962
    }
  ],
  "buffers": [
    {
      "byteLength": 1012584,
      "uri": "scene.bin"
    }
  ],
  "images": [
    {
      "uri": "textures/Gloss_baseColor.png"
    },
    {
      "uri": "textures/Gloss_metallicRoughness.png"
    },
    {
      "uri": "textures/Gloss_emissive.png"
    },
    {
      "uri": "textures/Gloss_normal.png"
    },
    {
      "uri": "textures/Grain_baseColor.png"
    },
    {
      "uri": "textures/Grain_metallicRoughness.png"
    },
    {
      "uri": "textures/Grain_emissive.png"
    },
    {
      "uri": "textures/Grain_normal.png"
    },
    {
      "uri": "textures/Green_baseColor.png"
    },
    {
      "uri": "textures/Green_metallicRoughness.png"
    },
    {
      "uri": "textures/Green_emissive.png"
    },
    {
      "uri": "textures/Green_normal.png"
    },
    {
      "uri": "textures/Rubber_baseColor.png"
    },
    {
      "uri": "textures/Rubber_metallicRoughness.png"
    },
    {
      "uri": "textures/Rubber_emissive.png"
    },
    {
      "uri": "textures/Rubber_normal.png"
    },
    {
      "uri": "textures/Skates_baseColor.png"
    },
    {
      "uri": "textures/Skates_metallicRoughness.png"
    },
    {
      "uri": "textures/Skates_emissive.png"
    },
    {
      "uri": "textures/Skates_normal.png"
    }
  ],
  "materials": [
    {
      "doubleSided": true,
      "emissiveFactor": [
        1.0,
        1.0,
        1.0
      ],
      "emissiveTexture": {
        "index": 2
      },
      "name": "Gloss",
      "normalTexture": {
        "index": 3
      },
      "pbrMetallicRoughness": {
        "baseColorTexture": {
          "index": 0
        },
        "metallicRoughnessTexture": {
          "index": 1
        }
      }
    },
    {
      "doubleSided": true,
      "emissiveFactor": [
        1.0,
        1.0,
        1.0
      ],
      "emissiveTexture": {
        "index": 6
      },
      "name": "Grain",
      "normalTexture": {
        "index": 7
      },
      "pbrMetallicRoughness": {
        "baseColorTexture": {
          "index": 4
        },
        "metallicRoughnessTexture": {
          "index": 5
        }
      }
    },
    {
      "doubleSided": true,
      "emissiveFactor": [
        1.0,
        1.0,
        1.0
      ],
      "emissiveTexture": {
        "index": 10
      },
      "name": "Green",
      "normalTexture": {
        "index": 11
      },
      "pbrMetallicRoughness": {
        "baseColorTexture": {
          "index": 8
        },
        "metallicRoughnessTexture": {
          "index": 9
        }
      }
    },
    {
      "doubleSided": true,
      "emissiveFactor": [
        1.0,
        1.0,
        1.0
      ],
      "emissiveTexture": {
        "index": 14
      },
      "name": "Rubber",
      "normalTexture": {
        "index": 15
      },
      "pbrMetallicRoughness": {
        "baseColorTexture": {
          "index": 12
        },
        "metallicRoughnessTexture": {
          "index": 13
        }
      }
    },
    {
      "doubleSided": true,
      "emissiveFactor": [
        1.0,
        1.0,
        1.0
      ],
      "emissiveTexture": {
        "index": 18
      },
      "name": "Skates",
      "normalTexture": {
        "index": 19
      },
      "pbrMetallicRoughness": {
        "baseColorTexture": {
          "index": 16
        },
        "metallicRoughnessTexture": {
          "index": 17
        }
      }
    }
  ],
  "meshes": [
    {
      "name": "Object_0",
      "primitives": [
        {
          "attributes": {
            "NORMAL": 1,
            "POSITION": 0,
            "TANGENT": 2,
            "TEXCOORD_0": 3
          },
          "indices": 4,
          "material": 0,
          "mode": 4
        }
      ]
    },
    {
      "name": "Object_1",
      "primitives": [
        {
          "attributes": {
            "NORMAL": 6,
            "POSITION": 5,
            "TANGENT": 7,
            "TEXCOORD_0": 8
          },
          "indices": 9,
          "material": 1,
          "mode": 4
        }
      ]
    },
    {
      "name": "Object_2",
      "primitives": [
        {
          "attributes": {
            "NORMAL": 11,
            "POSITION": 10,
            "TANGENT": 12,
            "TEXCOORD_0": 13
          },
          "indices": 14,
          "material": 2,
          "mode": 4
        }
      ]
    },
    {
      "name": "Object_3",
      "primitives": [
        {
          "attributes": {
            "NORMAL": 16,
            "POSITION": 15,
            "TANGENT": 17,
            "TEXCOORD_0": 18
          },
          "indices": 19,
          "material": 3,
          "mode": 4
        }
      ]
    },
    {
      "name": "Object_4",
      "primitives": [
        {
          "attributes": {
            "NORMAL": 21,
            "POSITION": 20,
            "TANGENT": 22,
            "TEXCOORD_0": 23
          },
          "indices": 24,
          "material": 4,
          "mode": 4
        }
      ]
    }
  ],
  "nodes": [
    {
      "children": [
        1
      ],
      "matrix": [
        1.0,
        0.0,
        0.0,
        0.0,
        0.0,
        2.220446049250313e-16,
        -1.0,
        0.0,
        0.0,
        1.0,
        2.220446049250313e-16,
        0.0,
        0.0,
        0.0,
        0.0,
        1.0
      ],
      "name": "Sketchfab_model"
    },
    {
      "children": [
        2,
        3,
        4,
        5,
        6
      ],
      "name": "substancepainter.obj.cleaner.materialmerger.gles"
    },
    {
      "mesh": 0,
      "name": "Object_2"
    },
    {
      "mesh": 1,
      "name": "Object_3"
    },
    {
      "mesh": 2,
      "name": "Object_4"
    },
    {
      "mesh": 3,
      "name": "Object_5"
    },
    {
      "mesh": 4,
      "name": "Object_6"
    }
  ],
  "samplers": [
    {
      "magFilter": 9729,
      "minFilter": 9987,
      "wrapS": 10497,
      "wrapT": 10497
    }
  ],
  "scene": 0,
  "scenes": [
    {
      "name": "Sketchfab_Scene",
      "nodes": [
        0
      ]
    }
  ],
  "textures": [
    {
      "sampler": 0,
      "source": 0
    },
    {
      "sampler": 0,
      "source": 1
    },
    {
      "sampler": 0,
      "source": 2
    },
    {
      "sampler": 0,
      "source": 3
    },
    {
      "sampler": 0,
      "source": 4
    },
    {
      "sampler": 0,
      "source": 5
    },
    {
      "sampler": 0,
      "source": 6
    },
    {
      "sampler": 0,
      "source": 7
    },
    {
      "sampler": 0,
      "source": 8
    },
    {
      "sampler": 0,
      "source": 9
    },
    {
      "sampler": 0,
      "source": 10
    },
    {
      "sampler": 0,
      "source": 11
    },
    {
      "sampler": 0,
      "source": 12
    },
    {
      "sampler": 0,
      "source": 13
    },
    {
      "sampler": 0,
      "source": 14
    },
    {
      "sampler": 0,
      "source": 15
    },
    {
      "sampler": 0,
      "source": 16
    },
    {
      "sampler": 0,
      "source": 17
    },
    {
      "sampler": 0,
      "source": 18
    },
    {
      "sampler": 0,
      "source": 19
    }
  ]
}
